<?xml version="1.0" encoding="UTF-8"?>
<svg width="138px" height="21px" viewBox="0 0 138 21" version="1.1" xmlns="http://www.w3.org/2000/svg" xmlns:xlink="http://www.w3.org/1999/xlink">
    <!-- Generator: Sketch 46.2 (44496) - http://www.bohemiancoding.com/sketch -->
    <title>Logo-Home-FastCompany</title>
    <desc>Created with Sketch.</desc>
    <defs></defs>
    <g id="Symbols" stroke="none" stroke-width="1" fill="none" fill-rule="evenodd">
        <g id="Logo-Home-FastCompany" fill="#A6A5A5">
            <g id="Group" transform="translate(-0.201660, -0.011719)">
                <path d="M65.548527,5.87264444 C65.548527,8.62546387 65.2727777,17.1588925 65.2727777,17.1588925 C65.2727777,18.8102726 65.8242763,19.5440462 67.3837399,19.5440462 L67.3837399,20.2785987 L61.2362439,20.2785987 L61.2362439,19.5440462 C62.7964865,19.5440462 63.6213976,18.8102726 63.6213976,17.1588925 L64.1721173,3.21174145 C63.714093,2.1103021 63.2552898,1.7434153 62.061934,1.65227781 L62.061934,1.0096417 L66.7411038,1.0096417 L71.696802,14.0391863 L76.7428586,1.0096417 L80.9632252,1.0096417 L80.9632252,1.65227781 C79.7706484,1.65227781 79.1287913,2.20299749 79.1287913,3.48671181 L79.6795109,16.9750596 C79.6795109,18.9941055 80.0456188,19.5440462 81.6969988,19.5440462 L81.6969988,20.2785987 L74.6326753,20.2785987 L74.6326753,19.5440462 C76.009085,19.5440462 76.6509422,19.0852429 76.5598047,16.9750596 C76.5598047,16.9750596 76.2840554,7.52480347 76.1921389,5.87264444 L72.7974624,15.2317631 C72.3386591,16.42434 71.8798559,17.8007497 71.5121901,19.2690758 L70.4115297,19.3609923 C70.1365594,18.3514693 69.4020068,16.5170353 69.4020068,16.5170353 C69.4020068,16.5170353 66.5580499,8.53432638 65.548527,5.87264444" id="Fill-25"></path>
                <path d="M59.7679957,20.3703594 C59.4011089,20.2784429 59.0342221,20.2784429 58.6673353,20.2784429 C57.9335617,20.2784429 56.6482894,20.6453297 55.0880469,20.6453297 C49.1243837,20.6453297 44.7201842,17.0668203 44.7201842,10.460521 C44.7201842,4.86374469 48.8486344,0.55068267 55.1799633,0.55068267 C56.6482894,0.55068267 58.2996695,0.826431984 59.6760792,1.37715166 C59.9510496,1.10140235 60.043745,0.91756947 60.3187153,0.642599108 L60.869435,0.642599108 C60.7775186,1.65212202 60.4098528,4.95488217 60.4098528,4.95488217 L59.8599121,4.95488217 C59.4922464,3.02853174 58.4835024,1.74325951 55.2726587,1.74325951 C51.4183999,1.74325951 47.9318069,4.77182825 47.9318069,10.3686046 C47.9318069,16.6999335 51.5095374,19.4527529 55.4557126,19.4527529 C58.0246992,19.4527529 59.5849417,17.9844268 60.5944647,16.1499928 L61.2363218,16.4249631 L59.7679957,20.3703594 Z" id="Fill-27"></path>
                <path d="M42.4264017,4.58822906 L41.7837656,4.58822906 C41.6926281,2.84493254 41.1419084,2.29421287 39.7654987,2.29421287 L37.1045957,2.29421287 L37.1045957,16.7001672 C37.1045957,19.0853208 37.563399,19.5441241 39.1228626,19.5441241 L39.1228626,20.2786766 L32.241593,20.2786766 L32.241593,19.5441241 C33.8018356,19.5441241 34.2598599,19.0853208 34.2598599,16.6082507 L34.2598599,2.29421287 L31.5997358,2.29421287 C29.8556604,2.29421287 29.58069,2.75301611 29.1218868,4.58822906 L28.4800296,4.58822906 L28.9380539,0.458999918 L29.3968571,0.550916356 C29.58069,1.00971959 29.9467979,1.00971959 31.0490162,1.00971959 L39.9485526,1.00971959 C41.5999327,1.00971959 41.9675985,1.00971959 42.3344853,0.458999918 L42.8852049,0.458999918 L42.4264017,4.58822906 Z" id="Fill-29"></path>
                <path d="M22.9738455,20.737402 C21.6901312,20.737402 20.6806082,20.5535691 19.9460557,20.2785987 C19.2122821,20.0947659 18.6615624,19.8197955 18.3858131,19.6359626 C18.0197053,20.0036284 17.7439559,20.4616527 17.7439559,20.4616527 L17.1932363,20.2785987 L17.6520395,15.9663157 L18.2946756,16.0574532 C18.6615624,18.076499 20.0371932,19.5440462 22.882708,19.5440462 C25.0840288,19.5440462 26.5523549,17.7096122 26.5523549,15.6905664 C26.5523549,14.0391863 25.9104978,13.2134962 23.7076191,11.5613372 C22.9738455,11.102534 22.3319883,10.7356472 21.7812686,10.2768439 C19.7622228,8.99235066 18.4785085,7.52480347 18.4785085,5.13887084 C18.4785085,2.38605141 20.7717457,0.55083846 23.8003145,0.55083846 C25.543611,0.55083846 26.6442714,1.10155814 27.0119371,1.28461206 L27.6537943,0.55083846 L28.1125975,0.642754899 L27.6537943,4.58815116 L27.0119371,4.49623472 C27.0119371,2.66102177 25.9104978,1.83533174 24.0752848,1.83533174 C22.3319883,1.83533174 21.0467161,2.75293821 21.0467161,4.49623472 C21.0467161,6.05647731 22.2400719,7.06600023 23.6164816,7.98282775 C24.3510342,8.44163099 24.9009749,8.80929674 25.4516945,9.17618354 C28.6633172,11.4701997 29.3970908,12.9377469 29.3970908,15.1398467 C29.3970908,18.3514693 26.9192417,20.737402 22.9738455,20.737402" id="Fill-31"></path>
                <path d="M12.5143001,4.58822906 L11.7805265,4.58822906 C11.7805265,2.93607003 11.0459739,2.29421287 9.57764779,2.29421287 L5.4491976,2.29421287 L5.4491976,9.54314824 L8.11010059,9.54314824 C9.48573135,9.54314824 9.76148066,8.80859568 9.94453459,7.61601885 L10.5863917,7.61601885 L10.5863917,12.7539919 L9.94453459,12.7539919 C9.76148066,11.3783612 9.48573135,10.8276415 8.01818415,10.8276415 L5.4491976,10.8276415 L5.4491976,16.9751375 C5.4491976,19.2691537 5.99913832,19.5441241 7.46746447,19.5441241 L7.46746447,20.2786766 L0.493499469,20.2786766 L0.493499469,19.5441241 C2.23757493,19.5441241 2.5125453,19.0853208 2.5125453,16.9751375 L2.5125453,3.48678971 C2.5125453,2.20229643 1.96182562,1.65235571 0.493499469,1.65235571 L0.493499469,1.00971959 L10.036451,1.00971959 C11.6878311,1.00971959 12.0547179,0.917803155 12.3304672,0.367862432 L12.9731033,0.367862432 L12.5143001,4.58822906 Z" id="Fill-33"></path>
                <path d="M100.048349,4.77151667 L97.4793629,13.1211124 L102.801169,13.1211124 L100.048349,4.77151667 Z M111.51843,5.68912314 L111.51843,16.6996219 C111.51843,19.0855545 112.06915,19.5443578 113.536697,19.5443578 L113.536697,20.2781314 L102.710031,20.2781314 L102.710031,19.5443578 C103.535721,19.5443578 104.269495,19.2693874 104.269495,18.7186677 C104.269495,18.3517809 104.177579,17.7091448 103.993746,17.0672877 L103.168835,14.4063847 L97.1124761,14.4063847 C97.0205596,14.7732715 95.9198992,17.8010613 95.9198992,18.6267513 C95.9198992,19.3605249 96.7455893,19.5443578 97.2963089,19.5443578 L97.2963089,20.2781314 L92.2494733,20.2781314 L92.2494733,19.5443578 C93.1670798,19.5443578 93.9008534,19.4524413 94.5434895,17.5260909 L99.2226594,2.56941692 C98.947689,1.92755976 98.5808022,1.74372688 97.9381661,1.65258939 L97.9381661,1.00995328 L102.067395,1.00995328 L107.022314,16.6996219 C107.481118,18.3517809 107.939921,19.177471 108.673694,19.5443578 C109.774355,19.177471 110.050104,18.8098052 110.050104,16.6996219 L110.050104,3.48702339 C109.224414,2.38558404 109.132498,1.65258939 107.572255,1.65258939 L107.572255,1.00995328 L112.252204,1.00995328 L119.959943,14.1306353 L119.959943,4.12965951 C119.959943,2.11061368 119.501139,1.65258939 117.941676,1.65258939 L117.941676,1.00995328 L128.217622,1.00995328 L128.217622,1.65258939 C127.575765,1.65258939 127.025045,1.92755976 127.025045,2.56941692 C127.025045,3.02822015 127.208099,3.48702339 127.391932,4.03774307 L130.327805,10.369072 L133.172541,4.22079699 C133.631344,3.39510695 133.722482,2.93630372 133.722482,2.47827943 C133.722482,1.92755976 133.356374,1.65258939 132.529905,1.65258939 L132.529905,1.00995328 L137.392908,1.00995328 L137.392908,1.65258939 C136.200331,1.65258939 135.466557,2.75324979 134.915838,4.03774307 L131.154274,11.7454817 L131.154274,16.7915383 C131.154274,18.9936381 131.704994,19.5443578 133.172541,19.5443578 L133.172541,20.2781314 L126.198576,20.2781314 L126.198576,19.5443578 C127.666902,19.5443578 128.217622,18.9936381 128.217622,16.7915383 L128.217622,12.4792553 L124.180309,3.94582663 C123.446536,2.29444655 123.171565,1.92755976 122.712762,1.65258939 C121.795156,2.01869724 121.519406,2.66133335 121.519406,4.12965951 L121.519406,18.2598645 C121.519406,18.2598645 121.611323,19.3605249 121.703239,20.6450182 L120.510662,20.7377136 L111.51843,5.68912314 Z" id="Fill-35"></path>
                <path d="M87.7539805,2.29429076 L87.2943984,2.29429076 L87.2943984,11.7453259 L88.1208673,11.7453259 C91.1478782,11.7453259 92.7081208,10.3689162 92.7081208,6.88232314 C92.7081208,3.39573012 91.33249,2.29429076 87.7539805,2.29429076 M88.671587,13.1209566 L87.2943984,13.1209566 L87.2943984,17.0671319 C87.2943984,19.0853987 87.845118,19.544202 89.4053606,19.544202 L89.4053606,20.2779756 L82.3402581,20.2779756 L82.3402581,19.544202 C83.8085843,19.544202 84.358525,18.9934823 84.358525,16.9752154 L84.358525,4.03758728 C84.358525,2.01854145 83.8085843,1.6524336 82.3402581,1.6524336 L82.3402581,1.00979749 L87.6620641,1.00979749 C92.8008162,1.00979749 95.827827,2.57004008 95.827827,6.7904067 C95.827827,11.1946062 92.1574011,13.1209566 88.671587,13.1209566" id="Fill-37"></path>
                <path d="M56.6483673,5.59767408 C54.2624347,5.59767408 53.4367447,7.89169027 53.4367447,10.5525933 C53.4367447,13.0296634 54.1705183,15.5075124 56.6483673,15.5075124 C59.0343,15.5075124 59.7680736,13.0296634 59.7680736,10.4606768 C59.7680736,7.9836067 58.8504671,5.59767408 56.6483673,5.59767408 M56.6483673,16.6081728 C53.1609954,16.6081728 50.7758417,14.1311027 50.7758417,10.5525933 C50.7758417,7.15713771 53.2536908,4.49623472 56.6483673,4.49623472 C59.9511275,4.49623472 62.4289766,7.06600023 62.4289766,10.5525933 C62.4289766,13.9472698 59.85999,16.6081728 56.6483673,16.6081728" id="Fill-39"></path>
                <path d="M14.9911365,6.60672962 L13.6147268,11.1028456 L16.4594627,11.1028456 L14.9911365,6.60672962 Z M16.2756298,15.5070451 L16.2756298,14.8651879 C17.1932363,14.8651879 17.3770691,14.5894386 17.3770691,14.3144682 C17.3770691,13.9468025 17.2851527,13.6718321 17.1932363,13.3968617 C17.1932363,13.3968617 17.0101823,12.6623092 16.8263495,12.1123685 L13.24784,12.1123685 L12.8809532,13.3049453 C12.7890368,13.5806946 12.6978993,13.855665 12.6978993,14.2225518 C12.6978993,14.5894386 13.0640071,14.8651879 13.6147268,14.8651879 L13.6147268,15.5070451 L10.0369963,15.5070451 L10.0369963,14.8651879 C10.9538238,14.8651879 11.3207106,14.5894386 11.6883764,13.5806946 L14.4411958,5.32223634 C14.3492794,4.95534954 14.07353,4.67960023 13.5228104,4.67960023 L13.5228104,4.03774307 L16.4594627,4.03774307 C18.8446163,11.0109291 19.4872525,12.8461421 19.4872525,12.8461421 C19.9460557,14.4063847 20.4048589,14.8651879 21.1394115,14.8651879 L21.1394115,15.5070451 L16.2756298,15.5070451 Z" id="Fill-41"></path>
            </g>
        </g>
    </g>
</svg>