<?xml version="1.0" encoding="UTF-8"?>
<svg width="138px" height="35px" viewBox="0 0 138 35" version="1.1" xmlns="http://www.w3.org/2000/svg" xmlns:xlink="http://www.w3.org/1999/xlink">
    <!-- Generator: Sketch 46.2 (44496) - http://www.bohemiancoding.com/sketch -->
    <title>Logo-Home-Forbes</title>
    <desc>Created with Sketch.</desc>
    <defs></defs>
    <g id="Symbols" stroke="none" stroke-width="1" fill="none" fill-rule="evenodd">
        <g id="Logo-Home-Forbes">
            <g id="Group-12" transform="translate(-0.422852, -0.674561)">
                <path d="M80.7695236,33.6685574 C84.0918378,33.6685574 86.4641364,28.7650153 86.4641364,22.4382766 C86.4641364,17.3757895 84.5650187,13.263318 81.0864999,13.263318 C80.2945157,13.263318 79.66239,13.420436 78.7132878,13.7383258 C78.5552564,21.9632688 78.7132878,31.2962588 78.8713193,33.510526 C79.3454136,33.6685574 80.1373978,33.6685574 80.7695236,33.6685574 Z M84.4079007,10.7320744 C89.7864507,10.7320744 93.8989222,15.4775852 93.8989222,21.9632688 C93.8989222,30.1891252 88.8373486,35.4096438 80.4534607,35.4096438 C77.4472093,35.4096438 74.4418714,34.934636 71.594565,34.3015967 C71.7535099,30.9801959 71.9115413,10.7320744 71.594565,6.93566584 C71.2785021,5.03746154 70.8044077,4.24639084 69.3802978,3.93032795 L68.2722507,3.77229651 L68.2722507,2.82228088 L78.8713193,0.924076583 C78.7132878,2.50621799 78.7132878,7.09461076 78.7132878,12.1552709 C80.4534607,11.2070822 82.1936335,10.7320744 84.4079007,10.7320744 Z" id="Fill-1" fill="#A6A5A5"></path>
                <path d="M80.7695236,33.6685574 C80.1373978,33.6685574 79.3454136,33.6685574 78.8713193,33.510526 C78.7132878,31.2962588 78.5552564,21.9632688 78.7132878,13.7383258 C79.66239,13.420436 80.2945157,13.263318 81.0864999,13.263318 C84.5650187,13.263318 86.4641364,17.3757895 86.4641364,22.4382766 C86.4641364,28.7650153 84.0918378,33.6685574 80.7695236,33.6685574 Z M84.4079007,10.7320744 C82.1936335,10.7320744 80.4534607,11.2070822 78.7132878,12.1552709 C78.7132878,7.09461076 78.7132878,2.50621799 78.8713193,0.924076583 L68.2722507,2.82228088 L68.2722507,3.77229651 L69.3802978,3.93032795 C70.8044077,4.24639084 71.2785021,5.03746154 71.594565,6.93566584 C71.9115413,10.7320744 71.7535099,30.9801959 71.594565,34.3015967 C74.4418714,34.934636 77.4472093,35.4096438 80.4534607,35.4096438 C88.8373486,35.4096438 93.8989222,30.1891252 93.8989222,21.9632688 C93.8989222,15.4775852 89.7864507,10.7320744 84.4079007,10.7320744 Z" id="Stroke-3"></path>
                <path d="M28.4095951,1.55766393 L0.568656408,1.55766393 L0.568656408,2.98086041 L2.15171129,3.13889186 C4.20794703,3.45586822 4.99810426,4.72011979 5.31416715,7.72637115 C5.78917496,13.420984 5.63114352,23.7030762 5.31416715,28.6075319 C4.99810426,31.6119563 4.20794703,33.0369797 2.15171129,33.1940977 L0.568656408,33.5101606 L0.568656408,34.7771526 L18.4444793,34.7771526 L18.4444793,33.5101606 L16.546275,33.1940977 C14.4900392,33.0369797 13.6989685,31.6119563 13.3829056,28.6075319 C13.2239607,26.5503827 13.0659293,23.2280684 13.0659293,19.1155969 L16.8623379,19.2745419 C19.23555,19.2745419 20.3417701,21.1727462 20.8167779,23.8620212 L22.2408879,23.8620212 L22.2408879,12.6308268 L20.8167779,12.6308268 C20.3417701,15.3201018 19.23555,17.2173926 16.8623379,17.2173926 L13.0659293,17.3754241 C13.0659293,11.9977876 13.2239607,6.93530045 13.3829056,3.92996256 L18.9176601,3.92996256 C23.18999,3.92996256 25.4042572,6.61923756 26.9854851,11.3647483 L28.5676265,10.8897405 L28.4095951,1.55766393 Z" id="Fill-5" fill="#A6A5A5"></path>
                <path d="M28.4095951,1.55766393 L0.568656408,1.55766393 L0.568656408,2.98086041 L2.15171129,3.13889186 C4.20794703,3.45586822 4.99810426,4.72011979 5.31416715,7.72637115 C5.78917496,13.420984 5.63114352,23.7030762 5.31416715,28.6075319 C4.99810426,31.6119563 4.20794703,33.0369797 2.15171129,33.1940977 L0.568656408,33.5101606 L0.568656408,34.7771526 L18.4444793,34.7771526 L18.4444793,33.5101606 L16.546275,33.1940977 C14.4900392,33.0369797 13.6989685,31.6119563 13.3829056,28.6075319 C13.2239607,26.5503827 13.0659293,23.2280684 13.0659293,19.1155969 L16.8623379,19.2745419 C19.23555,19.2745419 20.3417701,21.1727462 20.8167779,23.8620212 L22.2408879,23.8620212 L22.2408879,12.6308268 L20.8167779,12.6308268 C20.3417701,15.3201018 19.23555,17.2173926 16.8623379,17.2173926 L13.0659293,17.3754241 C13.0659293,11.9977876 13.2239607,6.93530045 13.3829056,3.92996256 L18.9176601,3.92996256 C23.18999,3.92996256 25.4042572,6.61923756 26.9854851,11.3647483 L28.5676265,10.8897405 L28.4095951,1.55766393 Z" id="Stroke-7"></path>
                <path d="M36.9520625,11.9975135 C33.4717168,11.9975135 32.5226146,16.7430243 32.5226146,22.912645 C32.5226146,28.9233207 34.1047561,33.8268629 37.2699523,33.8268629 C40.9065025,33.8268629 41.8556047,29.0822657 41.8556047,22.912645 C41.8556047,16.9010557 40.2743768,11.9975135 36.9520625,11.9975135 M37.4270703,10.4162856 C45.3359504,10.4162856 49.2913039,15.7939221 49.2913039,22.912645 C49.2913039,29.7143914 44.8618561,35.4090043 36.9520625,35.4090043 C29.0431824,35.4090043 25.0887424,30.0313678 25.0887424,22.912645 C25.0887424,16.109985 29.5172768,10.4162856 37.4270703,10.4162856" id="Fill-9" fill="#A6A5A5"></path>
                <path d="M36.9520625,11.9975135 C33.4717168,11.9975135 32.5226146,16.7430243 32.5226146,22.912645 C32.5226146,28.9233207 34.1047561,33.8268629 37.2699523,33.8268629 C40.9065025,33.8268629 41.8556047,29.0822657 41.8556047,22.912645 C41.8556047,16.9010557 40.2743768,11.9975135 36.9520625,11.9975135 Z M37.4270703,10.4162856 C45.3359504,10.4162856 49.2913039,15.7939221 49.2913039,22.912645 C49.2913039,29.7143914 44.8618561,35.4090043 36.9520625,35.4090043 C29.0431824,35.4090043 25.0887424,30.0313678 25.0887424,22.912645 C25.0887424,16.109985 29.5172768,10.4162856 37.4270703,10.4162856 Z" id="Stroke-11"></path>
                <path d="M103.23173,20.0654299 L110.666515,19.9064849 C110.666515,16.7431156 110.192421,11.9976049 107.503146,11.9976049 C104.813871,11.9976049 103.389761,16.4270527 103.23173,20.0654299 M95.9558887,23.0707678 C95.9558887,16.5850842 100.06836,10.4163769 108.136185,10.4163769 C114.7799,10.4163769 117.94327,15.3199191 117.94327,21.8046892 L103.23173,21.8046892 C103.073698,27.6582471 105.921005,31.92875 111.616531,31.92875 C114.146861,31.92875 115.412939,31.2966242 116.994167,30.1894906 L117.627207,30.9796478 C116.044152,33.1948285 112.565633,35.4090957 108.136185,35.4090957 C101.017462,35.4090957 95.9558887,30.3475221 95.9558887,23.0707678" id="Fill-13" fill="#A6A5A5"></path>
                <path d="M103.23173,20.0654299 L110.666515,19.9064849 C110.666515,16.7431156 110.192421,11.9976049 107.503146,11.9976049 C104.813871,11.9976049 103.389761,16.4270527 103.23173,20.0654299 Z M95.9558887,23.0707678 C95.9558887,16.5850842 100.06836,10.4163769 108.136185,10.4163769 C114.7799,10.4163769 117.94327,15.3199191 117.94327,21.8046892 L103.23173,21.8046892 C103.073698,27.6582471 105.921005,31.92875 111.616531,31.92875 C114.146861,31.92875 115.412939,31.2966242 116.994167,30.1894906 L117.627207,30.9796478 C116.044152,33.1948285 112.565633,35.4090957 108.136185,35.4090957 C101.017462,35.4090957 95.9558887,30.3475221 95.9558887,23.0707678 Z" id="Stroke-15"></path>
                <path d="M136.76719,11.6817247 C134.868985,10.8897405 132.337742,10.4156462 129.490435,10.4156462 C123.638705,10.4156462 120.000327,13.8950784 120.000327,18.0084633 C120.000327,22.1218483 122.688689,23.8611077 126.485098,25.1271862 C130.439538,26.5503827 131.547585,27.6584297 131.547585,29.5557206 C131.547585,31.4548383 130.124388,33.1940977 127.593145,33.1940977 C124.587807,33.1940977 122.372626,31.4548383 120.632453,26.7093276 L119.524406,27.0253905 L119.683351,33.9860819 C121.581555,34.7771526 125.061901,35.4092784 128.067239,35.4092784 C134.235946,35.4092784 138.1913,32.2449956 138.1913,27.3423669 C138.1913,24.0191391 136.450213,22.1218483 132.337742,20.5397069 C127.909208,18.799534 126.327066,17.6924005 126.327066,15.6361647 C126.327066,13.5790155 127.751176,12.155819 129.64938,12.155819 C132.496687,12.155819 134.393978,13.8950784 135.818088,18.1664948 L136.925221,17.8504319 L136.76719,11.6817247 Z" id="Fill-17" fill="#A6A5A5"></path>
                <path d="M136.76719,11.6817247 C134.868985,10.8897405 132.337742,10.4156462 129.490435,10.4156462 C123.638705,10.4156462 120.000327,13.8950784 120.000327,18.0084633 C120.000327,22.1218483 122.688689,23.8611077 126.485098,25.1271862 C130.439538,26.5503827 131.547585,27.6584297 131.547585,29.5557206 C131.547585,31.4548383 130.124388,33.1940977 127.593145,33.1940977 C124.587807,33.1940977 122.372626,31.4548383 120.632453,26.7093276 L119.524406,27.0253905 L119.683351,33.9860819 C121.581555,34.7771526 125.061901,35.4092784 128.067239,35.4092784 C134.235946,35.4092784 138.1913,32.2449956 138.1913,27.3423669 C138.1913,24.0191391 136.450213,22.1218483 132.337742,20.5397069 C127.909208,18.799534 126.327066,17.6924005 126.327066,15.6361647 C126.327066,13.5790155 127.751176,12.155819 129.64938,12.155819 C132.496687,12.155819 134.393978,13.8950784 135.818088,18.1664948 L136.925221,17.8504319 L136.76719,11.6817247 Z" id="Stroke-19"></path>
                <path d="M69.8550315,11.0484114 C67.16667,9.46626996 62.4193323,10.2573407 59.8890022,15.9519536 L60.0470337,10.4162856 L49.4479651,12.4725213 L49.4479651,13.42071 L50.5560122,13.5796549 C51.9801222,13.7376864 52.612248,14.5287571 52.7702794,16.5859063 C53.0872558,20.3814014 52.9292243,27.0251164 52.7702794,30.3474307 C52.612248,32.245635 51.9801222,33.1947371 50.5560122,33.3527686 L49.4479651,33.5108 L49.4479651,34.7768786 L64.1604187,34.7768786 L64.1604187,33.5108 L62.2613009,33.3527686 C60.680073,33.1947371 60.2059786,32.245635 60.0470337,30.3474307 C59.7309708,27.3420928 59.7309708,21.3305036 59.8890022,17.534095 C60.680073,16.4269614 64.1604187,15.4778592 67.323788,17.534095 L69.8550315,11.0484114 Z" id="Fill-21" fill="#A6A5A5"></path>
                <path d="M69.8550315,11.0484114 C67.16667,9.46626996 62.4193323,10.2573407 59.8890022,15.9519536 L60.0470337,10.4162856 L49.4479651,12.4725213 L49.4479651,13.42071 L50.5560122,13.5796549 C51.9801222,13.7376864 52.612248,14.5287571 52.7702794,16.5859063 C53.0872558,20.3814014 52.9292243,27.0251164 52.7702794,30.3474307 C52.612248,32.245635 51.9801222,33.1947371 50.5560122,33.3527686 L49.4479651,33.5108 L49.4479651,34.7768786 L64.1604187,34.7768786 L64.1604187,33.5108 L62.2613009,33.3527686 C60.680073,33.1947371 60.2059786,32.245635 60.0470337,30.3474307 C59.7309708,27.3420928 59.7309708,21.3305036 59.8890022,17.534095 C60.680073,16.4269614 64.1604187,15.4778592 67.323788,17.534095 L69.8550315,11.0484114 Z" id="Stroke-23"></path>
            </g>
        </g>
    </g>
</svg>