<?xml version="1.0" encoding="UTF-8"?>
<svg width="140px" height="55px" viewBox="0 0 140 55" version="1.1" xmlns="http://www.w3.org/2000/svg" xmlns:xlink="http://www.w3.org/1999/xlink">
    <!-- Generator: Sketch 46.2 (44496) - http://www.bohemiancoding.com/sketch -->
    <title>Logo-Home-HuffPost</title>
    <desc>Created with Sketch.</desc>
    <defs></defs>
    <g id="Symbols" stroke="none" stroke-width="1" fill="none" fill-rule="evenodd">
        <g id="Logo-Home-HuffPost" fill="#A6A5A5">
            <g id="Group-18" transform="translate(0.094727, 0.272949)">
                <path d="M90.0373598,51.0651652 C90.0373598,53.0848619 90.0757258,53.3744339 91.1919941,53.4694355 L91.8067639,53.5288115 C91.9218619,53.60463 91.8834959,53.9508376 91.7693113,54.0093001 C90.672226,53.9709341 90.0181768,53.9508376 89.2472025,53.9508376 C88.4789688,53.9508376 87.804823,53.9709341 86.5725432,54.0093001 C86.4574451,53.9508376 86.4190791,53.6247265 86.5725432,53.5288115 L87.2649584,53.4694355 C88.3629572,53.3753474 88.4579588,53.0848619 88.4579588,51.0651652 L88.4579588,42.4638699 C88.4579588,41.8673697 88.4579588,41.8481867 87.8806416,41.8481867 L86.8228357,41.8481867 C85.9961395,41.8481867 84.9374201,41.8856392 84.4569314,42.3295888 C83.9947123,42.751615 83.8019688,43.1754681 83.5900422,43.6559568 C83.4365781,43.7719683 83.1671025,43.6751398 83.089457,43.5216757 C83.3982121,42.6556999 83.6859572,41.4243335 83.8211518,40.6551863 C83.8796143,40.6159068 84.1289934,40.5976372 84.1874559,40.6551863 C84.3016404,41.2708695 84.9374201,41.2516865 85.8216654,41.2516865 L93.6163609,41.2516865 C94.6558973,41.2516865 94.8276309,41.212407 95.1172029,40.7127353 C95.2122045,40.6734558 95.4250445,40.6935523 95.4624971,40.7693708 C95.2523975,41.5595281 95.1172029,43.1160921 95.174752,43.6952363 C95.0971064,43.8487003 94.7709953,43.8487003 94.6741668,43.7336023 C94.6175313,43.2540271 94.4823367,42.5406019 94.1945916,42.3295888 C93.750642,42.0025642 93.0207742,41.8491001 91.9611414,41.8491001 L90.5945805,41.8491001 C90.0181768,41.8491001 90.0373598,41.8691966 90.0373598,42.5031494 L90.0373598,51.0651652 Z M76.3653561,54.2586792 C74.749416,54.2586792 73.7290627,53.7580941 73.3627586,53.5461675 C73.1325625,53.1232279 72.8831834,51.7575804 72.8439039,50.8532386 C72.9389055,50.719871 73.229391,50.6796781 73.3052096,50.7966031 C73.5929547,51.7767634 74.3821984,53.6630925 76.6156486,53.6630925 C78.2306752,53.6630925 79.0190055,52.6052867 79.0190055,51.4488253 C79.0190055,50.6020326 78.8472719,49.6593247 77.4423449,48.754983 L75.6144783,47.5619826 C74.6507605,46.9262029 73.5354057,45.830031 73.5354057,44.252457 C73.5354057,42.4236769 74.9576887,40.9429314 77.4615279,40.9429314 C78.0580281,40.9429314 78.7513568,41.057116 79.250115,41.193224 C79.5013211,41.2690425 79.7707967,41.3074085 79.9242607,41.3074085 C80.0978213,41.7687142 80.2732088,42.8466165 80.2732088,43.6550433 C80.1955633,43.7710548 79.8868082,43.8286038 79.7899797,43.7135058 C79.5406006,42.7890675 79.0199189,41.5376046 77.1737828,41.5376046 C75.2883672,41.5376046 74.8827836,42.7890675 74.8827836,43.6742263 C74.8827836,44.7886677 75.8063084,45.5989214 76.5188201,46.0410441 L78.0589416,47.0029349 C79.271125,47.7528992 80.4641254,48.870081 80.4641254,50.6979476 C80.4641254,52.8162997 78.8664549,54.2586792 76.3653561,54.2586792 L76.3653561,54.2586792 Z M68.0947393,48.1402132 C68.0947393,44.9640552 66.6888988,41.5394316 63.0139826,41.5394316 C61.0134689,41.5394316 58.4155416,42.906906 58.4155416,47.1198599 C58.4155416,49.9689933 59.8003721,53.6612656 63.5912998,53.6612656 C65.8996551,53.6630925 68.0947393,51.931141 68.0947393,48.1402132 L68.0947393,48.1402132 Z M56.4908465,47.7355431 C56.4908465,43.8888933 59.3783459,40.9429314 63.3419207,40.9429314 C67.7887246,40.9429314 70.0185209,44.1565419 70.0185209,47.543713 C70.0185209,51.4287288 67.0561164,54.2577658 63.3419207,54.2577658 C59.0705043,54.2586792 56.4908465,51.2003597 56.4908465,47.7355431 L56.4908465,47.7355431 Z M47.8237809,51.0651652 C47.8237809,53.0848619 47.8630604,53.3360679 49.0944268,53.4694355 L49.6151084,53.5288115 C49.729293,53.6247265 49.6927539,53.9508376 49.5758289,54.0093001 C48.4787436,53.9709341 47.8447908,53.9508376 47.0747301,53.9508376 C46.2672168,53.9508376 45.5738881,53.9709341 44.7270953,54.0093001 C44.6110838,53.9508376 44.5736313,53.642996 44.6878158,53.5288115 L45.0924859,53.4694355 C46.2087543,53.3177984 46.2471203,53.0848619 46.2471203,51.0651652 L46.2471203,43.9647119 C46.2471203,42.3295888 46.2087543,42.0025642 45.3427785,41.9057357 L44.6494498,41.8290037 C44.5142553,41.7129921 44.5343518,41.425247 44.6878158,41.348515 C45.7090826,41.212407 46.9011695,41.1950509 48.49884,41.1950509 C50.0955971,41.1950509 51.2895109,41.406064 52.1938527,41.9632847 C53.078098,42.5214189 53.7339742,43.5225892 53.7339742,44.8507841 C53.7339742,46.6201882 52.6378023,47.5062605 51.8083656,47.9109306 C50.9624863,48.3146872 49.9412195,48.4873343 49.1528893,48.4873343 C49.0176947,48.4288718 49.0176947,48.1402132 49.1346197,48.1018472 C51.2127789,47.7172736 51.9627432,46.5425427 51.9627432,44.8690537 C51.9627432,43.002821 50.8656578,41.7915511 48.8651441,41.7915511 C47.8457043,41.7915511 47.8256078,41.8691966 47.8256078,42.4839663 L47.8256078,51.0651652 L47.8237809,51.0651652 Z M137.804876,30.4735765 C137.804876,31.0508937 137.804876,33.3391525 137.861512,33.8406511 C137.824059,33.9548357 137.707134,34.0516642 137.496121,34.0516642 C137.265012,33.7246396 136.707791,33.0504939 135.034302,31.1468087 L130.570142,26.067879 C130.050374,25.4713788 128.742275,23.8919779 128.337605,23.4690382 L128.299239,23.4690382 C128.222507,23.7001478 128.202411,24.1431839 128.202411,24.7205011 L128.202411,28.9151855 C128.202411,29.8195273 128.222507,32.3206261 128.548618,32.8979433 C128.66463,33.1107833 129.050117,33.2258814 129.530605,33.2633339 L130.128019,33.3227099 C130.243117,33.476174 130.222107,33.7072835 130.087826,33.8031986 C129.337862,33.7666595 128.587898,33.7474765 127.837933,33.7456496 C127.028593,33.7456496 126.509738,33.7648326 125.834679,33.8031986 C125.702225,33.708197 125.681215,33.437808 125.797227,33.3227099 L126.316995,33.2633339 C126.759118,33.2057849 127.066959,33.0916003 127.164701,32.8778468 C127.433263,32.1872585 127.41408,29.8396238 127.41408,28.9151855 L127.41408,23.3530267 C127.41408,22.8159025 127.394897,22.4112324 126.990227,21.9672828 C126.720752,21.6987206 126.258532,21.5635261 125.797227,21.5068906 L125.470202,21.4676111 C125.355104,21.3534265 125.355104,21.0638544 125.508568,20.9871224 C126.317908,21.0446714 127.336435,21.0446714 127.683556,21.0446714 C127.991397,21.0446714 128.318422,21.0254884 128.568715,20.9871224 C128.954202,21.9672828 131.223278,24.5085746 131.858144,25.2201728 L133.726203,27.317515 C135.051658,28.799174 135.997106,29.8761628 136.899621,30.8006011 L136.937987,30.8006011 C137.015632,30.7037726 137.015632,30.3950175 137.015632,29.9903474 L137.015632,25.8723951 C137.015632,24.9689667 136.996449,22.4669544 136.630145,21.8905507 C136.514134,21.7169902 136.207206,21.6018921 135.437145,21.5050636 L135.11012,21.4657841 C134.975839,21.3515996 134.995936,21.0428445 135.1494,20.9862089 C136.033645,21.0236615 136.687694,21.043758 137.420303,21.043758 C138.246999,21.043758 138.746671,21.0236615 139.401633,20.9862089 C139.555097,21.080297 139.555097,21.3515996 139.440913,21.4657841 L139.16961,21.5050636 C138.553013,21.6018921 138.16844,21.7544427 138.091708,21.9097337 C137.765597,22.6012355 137.803963,24.9881497 137.803963,25.8723951 L137.803963,30.4735765 L137.804876,30.4735765 Z M121.295614,27.9322847 C121.295614,24.7570402 119.889774,21.3324165 116.214858,21.3324165 C114.214344,21.3324165 111.616417,22.698064 111.616417,26.9119314 C111.616417,29.7601513 113.002161,33.4542505 116.792175,33.4542505 C119.099617,33.4542505 121.295614,31.7232124 121.295614,27.9322847 L121.295614,27.9322847 Z M109.691721,27.5285281 C109.691721,23.6809648 112.577394,20.7359163 116.542796,20.7359163 C120.987773,20.7359163 123.217569,23.9486134 123.217569,27.336698 C123.217569,31.2226273 120.256078,34.0516642 116.542796,34.0516642 C112.269552,34.0516642 109.691721,30.9924312 109.691721,27.5285281 L109.691721,27.5285281 Z M102.259676,30.8572367 C102.259676,32.8769333 102.298956,33.1665054 103.415224,33.2624205 L104.029994,33.320883 C104.144178,33.397615 104.106726,33.7438226 103.990714,33.8022851 C102.895456,33.7639191 102.241407,33.7438226 101.470432,33.7438226 C100.702199,33.7438226 100.028966,33.7639191 98.795773,33.8022851 C98.680675,33.7438226 98.642309,33.416798 98.795773,33.320883 L99.4900152,33.2624205 C100.585274,33.1674189 100.682102,32.8769333 100.682102,30.8572367 L100.682102,22.2559413 C100.682102,21.6594412 100.682102,21.6402581 100.104785,21.6402581 L99.0469791,21.6402581 C98.2193693,21.6402581 97.1615635,21.6786242 96.6792479,22.1207468 C96.2188557,22.5436865 96.0270256,22.9684531 95.8141855,23.4489417 C95.659808,23.5649533 95.3912459,23.4681247 95.3136004,23.3146607 C95.6232689,22.4495984 95.9110141,21.218232 96.0452951,20.4481712 C96.1037576,20.4088917 96.3540502,20.3906222 96.4115992,20.4481712 C96.5266973,21.0638544 97.162477,21.0446714 98.0485492,21.0446714 L105.840504,21.0446714 C106.879127,21.0446714 107.052688,21.0053919 107.340433,20.5057203 C107.436348,20.4664408 107.648274,20.4865372 107.687554,20.5632693 C107.474714,21.3534265 107.340433,22.910904 107.397068,23.4882212 C107.322163,23.6425988 106.994225,23.6425988 106.897397,23.5265872 C106.840761,23.0451851 106.70648,22.3335869 106.416908,22.1216603 C105.973872,21.7946357 105.243091,21.6411716 104.185285,21.6411716 L102.818724,21.6411716 C102.24232,21.6411716 102.26059,21.6603546 102.26059,22.2943074 L102.26059,30.8572367 L102.259676,30.8572367 Z M92.0835473,31.7807615 C92.0835473,32.5499087 92.2004723,33.0130413 92.5457664,33.1473224 C92.6042289,33.2140062 92.598748,33.3144886 92.5320643,33.3729511 C92.5302373,33.3747781 92.5284104,33.376605 92.5265834,33.378432 C92.2954738,33.378432 91.9501797,33.4542505 91.5829621,33.5501656 C90.5644357,33.8214681 89.1786918,34.0516642 88.1391555,34.0516642 C85.8499832,34.0516642 83.7508141,33.4177115 82.2691551,31.915956 C81.1154342,30.7613216 80.5006645,29.2412966 80.5006645,27.5467976 C80.5006645,25.9116746 81.0377887,24.2573685 82.2307891,22.9867226 C83.520618,21.6393447 85.4252166,20.7350029 88.331899,20.7350029 C89.4289844,20.7350029 90.4465973,20.9469294 90.7754488,21.0236615 C91.139926,21.101307 91.7355127,21.235588 91.9675357,21.197222 C91.9675357,21.8330017 92.0835473,22.834172 92.2571078,23.9869794 C92.1995588,24.1404435 91.8515242,24.1596265 91.7364262,24.0454419 C91.1983885,21.9672828 89.754182,21.3123201 87.7920344,21.3123201 C84.0595691,21.3123201 82.4226191,23.9696234 82.4226191,26.8552958 C82.4226191,30.5493951 84.3272178,33.4542505 88.195791,33.4542505 C89.3887914,33.4542505 90.1003896,33.203958 90.3123162,32.8769333 C90.4073178,32.7426523 90.5059732,32.3964447 90.5059732,31.7807615 L90.5059732,31.0107007 C90.5059732,29.3938472 90.4456838,29.2796626 89.2535969,29.1435546 L88.4068041,29.0485531 C88.25334,28.971821 88.272523,28.6246999 88.4068041,28.5680644 C88.9658518,28.6073439 90.0227441,28.6246999 91.1581955,28.6246999 C91.9090732,28.6246999 92.5631225,28.6064304 93.1979887,28.5680644 C93.3331832,28.643883 93.3523662,28.933455 93.2162582,29.0485531 L92.9093301,29.0869191 C92.0999898,29.1837476 92.0817203,29.7226988 92.0817203,30.7037726 L92.0817203,31.7807615 L92.0835473,31.7807615 Z M76.4740598,30.4735765 C76.4740598,31.0508937 76.4740598,33.3391525 76.5316088,33.8406511 C76.4941563,33.9548357 76.3772313,34.0516642 76.1662182,34.0516642 C75.9351086,33.7246396 75.3760609,33.0504939 73.7025719,31.1468087 L69.2393254,26.0669656 C68.7204707,25.4704654 67.4114588,23.8919779 67.0067887,23.4690382 L66.9684227,23.4690382 C66.8907771,23.6992343 66.8715941,24.1422705 66.8715941,24.7205011 L66.8715941,28.9151855 C66.8715941,29.8195273 66.8907771,32.3206261 67.2187152,32.8970298 C67.3338133,33.1107833 67.7174734,33.2249679 68.2007025,33.2633339 L68.7962893,33.3217964 C68.9104738,33.476174 68.8940313,33.7072835 68.7579232,33.8031986 C68.007959,33.7666595 67.2570813,33.7474765 66.5062035,33.7447361 C65.6968633,33.7447361 65.1780086,33.7648326 64.5038629,33.8031986 C64.3695818,33.708197 64.3494854,33.4368945 64.4664104,33.3217964 L64.9843516,33.2633339 C65.4283012,33.2057849 65.7352293,33.0916003 65.8320578,32.8778468 C66.1006199,32.1863451 66.0805234,29.8387103 66.0805234,28.914272 L66.0805234,23.3530267 C66.0805234,22.8159025 66.0613404,22.4112324 65.6594107,21.9672828 C65.3899352,21.6987206 64.927716,21.5635261 64.4664104,21.5068906 L64.1384723,21.4676111 C64.0224607,21.3534265 64.0224607,21.0638544 64.1759248,20.9871224 C64.9861785,21.0446714 66.0047049,21.0446714 66.351826,21.0446714 C66.6596676,21.0446714 66.9876057,21.0254884 67.2360713,20.9871224 C67.6224719,21.9672828 69.8915477,24.5085746 70.5273273,25.2201728 L72.39356,27.317515 C73.7217549,28.799174 74.6653762,29.8761628 75.5688045,30.8006011 L75.6071705,30.8006011 C75.6829891,30.7037726 75.6829891,30.3950175 75.6829891,29.9903474 L75.6829891,25.8723951 C75.6829891,24.9689667 75.6647195,22.4669544 75.2984154,21.8905507 C75.1842309,21.7169902 74.8754758,21.6018921 74.1063285,21.5050636 L73.7783904,21.4657841 C73.6450229,21.3515996 73.6632924,21.0428445 73.8167564,20.9862089 C74.7019152,21.0236615 75.3568779,21.043758 76.0876592,21.043758 C76.9161824,21.043758 77.4176811,21.0236615 78.0699033,20.9862089 C78.2233674,21.080297 78.2233674,21.3515996 78.1091828,21.4657841 L77.8397072,21.5050636 C77.224024,21.6018921 76.8394504,21.7544427 76.7618049,21.9097337 C76.4338668,22.6012355 76.4731463,24.9881497 76.4731463,25.8723951 L76.4731463,30.4735765 L76.4740598,30.4735765 Z M58.0373623,23.9677964 C58.0373623,21.9289167 57.9980828,21.6018921 56.8626314,21.5050636 L56.3812293,21.4666976 C56.2652178,21.390879 56.3054107,21.043758 56.4195953,20.9862089 C57.3823996,21.0245749 58.0373623,21.043758 58.8448756,21.043758 C59.6131094,21.043758 60.2680721,21.0245749 61.2308764,20.9862089 C61.3468879,21.043758 61.3843404,21.390879 61.2683289,21.4666976 L60.7878402,21.5050636 C59.6533023,21.6009787 59.6140229,21.9289167 59.6140229,23.9677964 L59.6140229,30.8188706 C59.6140229,32.8586638 59.6533023,33.1281394 60.7878402,33.2633339 L61.2683289,33.3199695 C61.3852539,33.3967015 61.3468879,33.7438226 61.2308764,33.8004581 C60.2689855,33.7620921 59.6131094,33.7438226 58.8448756,33.7438226 C58.0373623,33.7438226 57.3823996,33.7630056 56.4195953,33.8004581 C56.3054107,33.7438226 56.2661313,33.4350675 56.3812293,33.3199695 L56.8626314,33.2633339 C57.9980828,33.1272259 58.0373623,32.8586638 58.0373623,30.8188706 L58.0373623,23.9677964 Z M47.9525811,26.4698087 C47.9525811,26.9895769 48.0101301,26.9895769 48.5874473,26.9895769 L49.8973727,26.9895769 C50.6847895,26.9895769 51.3004727,26.9512109 51.5324957,26.8753923 C51.7435088,26.7977468 51.8978863,26.7009183 52.0138979,26.2003331 L52.1865449,25.4311859 C52.2815465,25.3160878 52.6094846,25.3160878 52.6862166,25.4311859 C52.6862166,25.8924915 52.6085711,26.6625523 52.6085711,27.3741505 C52.6085711,28.0674792 52.6862166,28.797347 52.6862166,29.2412966 C52.6085711,29.3554812 52.320826,29.3554812 52.1865449,29.2412966 L51.9938014,28.4895054 C51.8960594,28.1432978 51.7435088,27.8738222 51.3781182,27.7596376 C51.1095561,27.6819921 50.6272404,27.6628091 49.8973727,27.6628091 L48.5874473,27.6628091 C48.0101301,27.6628091 47.9525811,27.6819921 47.9525811,28.1825773 L47.9525811,30.8563232 C47.9525811,32.8778468 47.9918605,33.1655919 49.1263984,33.2624205 L49.7804477,33.3199695 C49.8964592,33.395788 49.8580932,33.7419956 49.7420816,33.8004581 C48.6057168,33.7620921 47.9525811,33.7419956 47.1825203,33.7419956 C46.3357275,33.7419956 45.6807648,33.7620921 44.7773365,33.8004581 C44.661325,33.7419956 44.6220455,33.4350675 44.738057,33.3199695 L45.2194592,33.2624205 C46.3348141,33.1263124 46.3740936,32.8769333 46.3740936,30.8563232 L46.3740936,23.9294304 C46.3740936,21.9097337 46.3357275,21.6384312 45.2194592,21.5050636 L44.9125311,21.4666976 C44.797433,21.3899656 44.8348855,21.0428445 44.9508971,20.9862089 C45.7593238,21.0236615 46.4124596,21.0428445 47.1834338,21.0428445 L50.7249824,21.0428445 C51.9563488,21.0428445 53.0717037,21.0428445 53.3219963,20.9862089 C53.3219963,21.8704542 53.3402658,22.7948925 53.3795453,23.5265872 C53.3219963,23.6416853 53.0525207,23.6983208 52.9173262,23.5832228 C52.7629486,22.717247 52.5318391,22.0056488 51.5699482,21.7553562 C51.1460951,21.6393447 50.5103154,21.6393447 49.7037156,21.6393447 L48.5289848,21.6393447 C47.9525811,21.6393447 47.9525811,21.6786242 47.9525811,22.4094054 L47.9525811,26.4698087 Z M36.3907082,26.4698087 C36.3907082,26.9895769 36.4482572,26.9895769 37.0264879,26.9895769 L38.3345863,26.9895769 C39.1229166,26.9895769 39.7385998,26.9512109 39.9687959,26.8753923 C40.1807225,26.7977468 40.3351,26.7009183 40.450198,26.2003331 L40.6246721,25.4311859 C40.7196736,25.3160878 41.0476117,25.3160878 41.1243438,25.4311859 C41.1243438,25.8924915 41.0466982,26.6625523 41.0466982,27.3741505 C41.0466982,28.0674792 41.1243438,28.797347 41.1243438,29.2412966 C41.0466982,29.3554812 40.7589531,29.3554812 40.6246721,29.2412966 L40.431015,28.4895054 C40.3341865,28.1432978 40.1807225,27.8738222 39.8153318,27.7596376 C39.5467697,27.6819921 39.0653676,27.6628091 38.3336729,27.6628091 L37.0255744,27.6628091 C36.4473438,27.6628091 36.3897947,27.6819921 36.3897947,28.1825773 L36.3897947,30.8563232 C36.3897947,32.8778468 36.4281607,33.1655919 37.5645256,33.2624205 L38.2176613,33.3199695 C38.3336729,33.395788 38.2943934,33.7419956 38.1792953,33.8004581 C37.0429305,33.7620921 36.3897947,33.7419956 35.619734,33.7419956 C34.7729412,33.7419956 34.118892,33.7620921 33.2145502,33.8004581 C33.0985387,33.7419956 33.0601727,33.4350675 33.1752707,33.3199695 L33.6557594,33.2624205 C34.7711143,33.1263124 34.8113072,32.8769333 34.8113072,30.8563232 L34.8113072,23.9294304 C34.8113072,21.9097337 34.7720277,21.6384312 33.6557594,21.5050636 L33.3479178,21.4666976 C33.2337332,21.3899656 33.2711857,21.0428445 33.3862838,20.9862089 C34.1965375,21.0236615 34.8487598,21.0428445 35.619734,21.0428445 L39.1603691,21.0428445 C40.3917355,21.0428445 41.5070904,21.0428445 41.7582965,20.9862089 C41.7582965,21.8704542 41.776566,22.7948925 41.816759,23.5265872 C41.7582965,23.6416853 41.4888209,23.6983208 41.3545398,23.5832228 C41.2001623,22.717247 40.9690527,22.0056488 40.0071619,21.7553562 C39.5842223,21.6393447 38.9484426,21.6393447 38.1400158,21.6393447 L36.9671119,21.6393447 C36.3897947,21.6393447 36.3897947,21.6786242 36.3897947,22.4094054 L36.3897947,26.4698087 L36.3907082,26.4698087 Z M27.9958586,25.8733085 C27.9958586,24.6812216 27.9565791,22.4678679 27.630468,21.8905507 C27.4952734,21.6594412 27.1472389,21.5242466 26.6685771,21.4867941 L26.187175,21.4475146 C26.0711635,21.3123201 26.110443,21.0620275 26.225541,20.9862089 C26.9554088,21.0254884 27.6871035,21.0446714 28.4187982,21.0446714 C29.229052,21.0446714 29.7469932,21.0245749 30.4394084,20.9862089 C30.5937859,21.0812105 30.5736895,21.33333 30.4777744,21.4475146 L30.0164688,21.4867941 C29.5368936,21.5242466 29.1705895,21.6978072 29.0545779,21.9490132 C28.7851023,22.582966 28.7851023,24.7954062 28.7851023,25.8733085 L28.7851023,28.0492097 C28.7851023,29.7236122 28.5156268,31.4930163 27.4377244,32.6467372 C26.6101146,33.551079 25.1869182,34.0516642 23.7628082,34.0516642 C22.4336998,34.0516642 21.1082453,33.8022851 20.164624,32.9929449 C19.1442707,32.1470656 18.663782,30.7403117 18.663782,28.4520529 L18.663782,23.9102474 C18.663782,21.9097337 18.6245025,21.5827091 17.5100611,21.4867941 L17.0277455,21.4475146 C16.911734,21.3698691 16.9510135,21.043758 17.0679385,20.9862089 C18.0298293,21.0245749 18.682965,21.0446714 19.4521123,21.0446714 C20.2422695,21.0446714 20.8780492,21.0245749 21.8189301,20.9862089 C21.9349416,21.0446714 21.9723941,21.3707826 21.8582096,21.4475146 L21.3969039,21.4867941 C20.2806355,21.5836226 20.2422695,21.9097337 20.2422695,23.9102474 L20.2422695,28.0665658 C20.2422695,31.1650783 21.2032469,33.203958 24.1482953,33.203958 C26.9389662,33.203958 27.9967721,31.0107007 27.9967721,28.0857488 L27.9967721,25.8733085 L27.9958586,25.8733085 Z M4.38614336,27.5285281 C3.46353203,27.5285281 3.42516602,27.5668941 3.42516602,28.1442113 L3.42516602,30.8572367 C3.42516602,32.8778468 3.5192541,33.1464089 4.59806992,33.2633339 L5.1562041,33.3199695 C5.27038867,33.3967015 5.23293613,33.7429091 5.11692461,33.8022851 C4.07830176,33.7630056 3.42516602,33.7429091 2.67337481,33.7429091 C1.84576504,33.7429091 1.19171582,33.7821886 0.44266504,33.8022851 C0.32574004,33.7429091 0.288287501,33.435981 0.403385548,33.3199695 L0.730410158,33.2633339 C1.8083125,33.0696769 1.84576504,32.8778468 1.84576504,30.8572367 L1.84576504,23.9303439 C1.84576504,21.9106472 1.71239746,21.5836226 0.71122715,21.5059771 L0.21155547,21.4685246 C0.0955439467,21.390879 0.133909962,21.043758 0.249921486,20.9871224 C1.1926293,21.0072189 1.84667852,21.043758 2.67428828,21.043758 C3.42607949,21.043758 4.07921524,21.0245749 4.906825,20.9871224 C5.02283652,21.043758 5.06211602,21.3917925 4.94610449,21.4685246 L4.57888692,21.5068906 C3.46444551,21.6229021 3.42607949,21.9106472 3.42607949,23.9303439 L3.42607949,26.1436976 C3.42607949,26.7401978 3.46444551,26.7593808 4.38705684,26.7593808 L9.8916666,26.7593808 C10.8133645,26.7593808 10.8526439,26.7401978 10.8526439,26.1436976 L10.8526439,23.9303439 C10.8526439,21.9106472 10.8133645,21.6229021 9.67974004,21.5068906 L9.31343594,21.4685246 C9.19925137,21.390879 9.23670391,21.043758 9.35271543,20.9871224 C10.2378742,21.0254884 10.8919234,21.043758 11.6802537,21.043758 C12.4311314,21.043758 13.0860941,21.0245749 13.9511564,20.9871224 C14.067168,21.043758 14.105534,21.3917925 13.9904359,21.4685246 L13.5857658,21.5068906 C12.4704109,21.6229021 12.4311314,21.9106472 12.4311314,23.9303439 L12.4311314,30.8581501 C12.4311314,32.8787603 12.4704109,33.1281394 13.5857658,33.2633339 L14.0470715,33.3199695 C14.1621695,33.397615 14.1238035,33.7429091 14.0096189,33.8022851 C13.2331639,33.765746 12.4557953,33.7456496 11.6793402,33.7438226 C10.89101,33.7438226 10.1985947,33.7630056 9.35180195,33.8022851 C9.23579043,33.7438226 9.19742442,33.4368945 9.31252246,33.3199695 L9.67882656,33.2633339 C10.8517305,33.0696769 10.8517305,32.8778468 10.8517305,30.8581501 L10.8517305,28.1442113 C10.8517305,27.5668941 10.812451,27.5285281 9.89075313,27.5285281 L4.38614336,27.5285281 Z M82.2554529,3.72241537 C82.2554529,1.72007475 82.2161734,1.43232963 81.0816355,1.29804858 L80.771967,1.25876908 C80.6577824,1.18295053 80.6970619,0.835829435 80.8112465,0.779193888 C81.6388563,0.816646427 82.2929055,0.836742912 83.0830627,0.836742912 L86.7013434,0.836742912 C87.9308828,0.836742912 89.0672477,0.836742912 89.2974438,0.779193888 C89.4116283,1.10530502 89.5285533,2.49104897 89.6043719,3.33692826 C89.5285533,3.45293979 89.2216252,3.4913058 89.1238832,3.37620776 C88.8361381,2.47095248 88.6625775,1.79772026 87.6614072,1.54742768 C87.2567371,1.45242611 86.6401404,1.43324311 85.7951746,1.43324311 L84.4103441,1.43324311 C83.8321135,1.43324311 83.8321135,1.47069565 83.8321135,2.20239037 L83.8321135,6.04995365 C83.8321135,6.58890483 83.890576,6.58890483 84.4678932,6.58890483 L85.583248,6.58890483 C86.3916748,6.58890483 86.9872615,6.55053881 87.2192846,6.47472026 C87.4503941,6.39707475 87.5846752,6.28106322 87.6824172,5.80057455 L87.8367947,5.01041733 C87.9308828,4.89623276 88.2588209,4.89623276 88.3364664,5.03051381 C88.3364664,5.49181947 88.2597344,6.24269721 88.2597344,6.97256498 C88.2597344,7.66589369 88.3364664,8.39758842 88.3364664,8.81961459 C88.2597344,8.95480912 87.9317963,8.95480912 87.8367947,8.83971108 L87.6623207,8.08974682 C87.5846752,7.7435392 87.4513076,7.45488061 87.0658205,7.35805209 C86.7963449,7.28040658 86.3350393,7.26122358 85.5841615,7.26122358 L84.4688066,7.26122358 C83.8914895,7.26122358 83.833027,7.28040658 83.833027,7.78099174 L83.833027,10.4931037 C83.833027,11.5143705 83.8914895,12.1684197 84.2002445,12.4945308 C84.4295271,12.7256404 84.8341973,12.9375669 86.5277828,12.9375669 C88.0094418,12.9375669 88.5684895,12.8617484 88.9914291,12.6498218 C89.3376367,12.4552513 89.8574049,11.783846 90.3589035,10.7817622 C90.4922711,10.6876742 90.7635736,10.7443097 90.8393922,10.9169568 C90.7041977,11.592016 90.2227955,13.0727615 89.9725029,13.5916162 C88.2414648,13.5541636 86.5296098,13.5340671 84.8159277,13.5340671 L83.0848896,13.5340671 C82.2572799,13.5340671 81.6041441,13.5541636 80.4668658,13.5916162 C80.3517678,13.5340671 80.3124883,13.2262255 80.4284998,13.112041 L81.0642795,13.0535785 C82.1595379,12.9585769 82.2563664,12.6671779 82.2563664,10.6483947 L82.2563664,3.72241537 L82.2554529,3.72241537 Z M67.7750225,7.32059955 C66.8514977,7.32059955 66.8122182,7.35987904 66.8122182,7.93628276 L66.8122182,10.6493081 C66.8122182,12.6699183 66.9090467,12.9403074 67.9860355,13.0554054 L68.5441697,13.1129544 C68.6592678,13.1896865 68.6218152,13.5358941 68.5058037,13.5934431 C67.4671809,13.5550771 66.8113047,13.5349806 66.0613404,13.5349806 C65.2346441,13.5349806 64.5805949,13.5742601 63.8315441,13.5934431 C63.7155326,13.5349806 63.6762531,13.2280525 63.7913512,13.1129544 L64.1192893,13.0554054 C65.1971916,12.8626619 65.2346441,12.6690048 65.2346441,10.6493081 L65.2346441,3.72241537 C65.2346441,1.70271869 65.1003631,1.37569408 64.0991928,1.29804858 L63.6004346,1.26059604 C63.484423,1.18386401 63.5227891,0.836742912 63.6388006,0.779193888 C64.5815084,0.798376896 65.2355576,0.836742912 66.0622539,0.836742912 C66.8122182,0.836742912 67.4680943,0.816646427 68.2947906,0.779193888 C68.4117156,0.836742912 68.4491682,1.18386401 68.3340701,1.26059604 L67.967766,1.29804858 C66.8524111,1.4140601 66.8131316,1.70271869 66.8131316,3.72241537 L66.8131316,5.93576908 C66.8131316,6.53226928 66.8524111,6.55145229 67.7759359,6.55145229 L73.2796322,6.55145229 C74.2022436,6.55145229 74.241523,6.53226928 74.241523,5.93576908 L74.241523,3.72241537 C74.241523,1.70271869 74.2022436,1.4140601 73.0677057,1.29804858 L72.7014016,1.26059604 C72.587217,1.18386401 72.6246695,0.836742912 72.7406811,0.779193888 C73.5162227,0.815732951 74.2926777,0.835829435 75.0682193,0.836742912 C75.8181836,0.836742912 76.4731463,0.816646427 77.3391221,0.779193888 C77.4551336,0.836742912 77.4934996,1.18386401 77.3774881,1.26059604 L76.972818,1.29804858 C75.8574631,1.4140601 75.8172701,1.70271869 75.8172701,3.72241537 L75.8172701,10.6493081 C75.8172701,12.6699183 75.8574631,12.9192974 76.972818,13.0554054 L77.4350371,13.1129544 C77.5519621,13.1896865 77.5117691,13.5358941 77.3966711,13.5934431 C76.6211295,13.556904 75.8455879,13.5368076 75.0682193,13.5349806 C74.2808025,13.5349806 73.5874738,13.5550771 72.7406811,13.5934431 C72.6246695,13.5349806 72.587217,13.2280525 72.7014016,13.1129544 L73.0677057,13.0554054 C74.241523,12.8626619 74.241523,12.6690048 74.241523,10.6493081 L74.241523,7.93628276 C74.241523,7.35987904 74.2022436,7.32059955 73.2796322,7.32059955 L67.7750225,7.32059955 Z M55.4896762,10.6493081 C55.4896762,12.6690048 55.5289557,12.9585769 56.6443105,13.0544919 L57.2599938,13.1129544 C57.3741783,13.1896865 57.3376393,13.5358941 57.2216277,13.5925296 C56.1254559,13.5550771 55.4704932,13.5358941 54.7004324,13.5358941 C53.9303717,13.5358941 53.2571395,13.5550771 52.025773,13.5925296 C51.910675,13.5358941 51.8713955,13.207956 52.025773,13.1129544 L52.7181883,13.0544919 C53.8171006,12.9585769 53.9121021,12.6680913 53.9121021,10.6493081 L53.9121021,2.04709936 C53.9121021,1.45151264 53.9121021,1.43232963 53.3338715,1.43232963 L52.2760656,1.43232963 C51.4493693,1.43232963 50.39065,1.47069565 49.9092479,1.9128183 C49.4470287,2.33575795 49.2551986,2.7586976 49.0441855,3.24009975 C48.8907215,3.35611127 48.6203324,3.26019623 48.5436004,3.10581869 C48.851442,2.24075639 49.1401006,1.00847651 49.2752951,0.238415763 C49.3337576,0.200049747 49.5831367,0.182693693 49.6406857,0.238415763 C49.7557838,0.855012443 50.3915635,0.835829435 51.2767223,0.835829435 L59.0705043,0.835829435 C60.1073002,0.835829435 60.2826877,0.796549943 60.5704328,0.296878263 C60.6672613,0.257598771 60.8782744,0.277695255 60.9175539,0.354427287 C60.7056273,1.14367104 60.5704328,2.70206205 60.6288953,3.27937924 C60.5521633,3.4328433 60.2242252,3.4328433 60.1292236,3.31774526 C60.0707611,2.83725658 59.9373936,2.12474486 59.646908,1.91373178 C59.2047854,1.58579369 58.4749176,1.43324311 57.4171117,1.43324311 L56.0505508,1.43324311 C55.4723201,1.43324311 55.4924166,1.45242611 55.4924166,2.08729233 L55.4924166,10.6493081 L55.4905896,10.6493081 L55.4896762,10.6493081 Z" id="Fill-79"></path>
            </g>
        </g>
    </g>
</svg>