<svg xmlns="http://www.w3.org/2000/svg" fill="none" viewBox="0 0 45 38">
  <mask id="a" width="45" height="18" x="0" y="0" fill="#000" maskUnits="userSpaceOnUse">
    <path fill="#fff" d="M0 0h45v18H0z"/>
    <path fill-rule="evenodd" d="M39.156 15.834a3.653 3.653 0 0 1-3.653-3.65 1.766 1.766 0 1 0-3.53 0 3.654 3.654 0 0 1-7.308 0 1.764 1.764 0 1 0-3.528 0 3.653 3.653 0 0 1-7.306 0 1.766 1.766 0 1 0-3.53 0A3.654 3.654 0 0 1 3 12.38l4.616-9.806A1 1 0 0 1 8.521 2h28.748a1 1 0 0 1 .907.58l4.614 9.982a3.654 3.654 0 0 1-3.634 3.272Z" clip-rule="evenodd"/>
  </mask>
  <path fill="#1DB4BE" d="m3 12.38-1.81-.852-.214.456.027.503L3 12.38Zm39.79.182 1.989.208.057-.547-.23-.5-1.816.84Zm-3.634 1.272a1.653 1.653 0 0 1-1.653-1.65h-4c0 3.117 2.53 5.65 5.653 5.65v-4Zm-1.653-1.65a3.766 3.766 0 0 0-3.766-3.767v4a.234.234 0 0 1-.234-.234h4Zm-3.766-3.767a3.764 3.764 0 0 0-3.764 3.766h4a.236.236 0 0 1-.236.234v-4Zm-3.764 3.766c0 .908-.74 1.65-1.653 1.65v4a5.654 5.654 0 0 0 5.653-5.65h-4Zm-1.653 1.65a1.655 1.655 0 0 1-1.655-1.65h-4c0 3.12 2.534 5.65 5.655 5.65v-4Zm-1.655-1.65A3.764 3.764 0 0 0 22.9 8.417v4a.236.236 0 0 1-.236-.234h4ZM22.9 8.417a3.764 3.764 0 0 0-3.764 3.766h4a.236.236 0 0 1-.236.234v-4Zm-3.764 3.766c0 .908-.74 1.65-1.653 1.65v4a5.654 5.654 0 0 0 5.653-5.65h-4Zm-1.653 1.65a1.653 1.653 0 0 1-1.653-1.65h-4c0 3.118 2.53 5.65 5.653 5.65v-4Zm-1.653-1.65a3.766 3.766 0 0 0-3.766-3.766v4a.234.234 0 0 1-.234-.234h4Zm-3.766-3.766A3.764 3.764 0 0 0 8.3 12.183h4a.236.236 0 0 1-.236.234v-4ZM8.3 12.183c0 .908-.74 1.65-1.653 1.65v4a5.654 5.654 0 0 0 5.653-5.65h-4Zm-1.653 1.65a1.653 1.653 0 0 1-1.65-1.56l-3.995.214a5.653 5.653 0 0 0 5.645 5.347v-4Zm-1.838-.601 4.616-9.806-3.62-1.704-4.616 9.806 3.62 1.704ZM8.52 4H37.27V0H8.52v4Zm27.84-.58 4.614 9.982 3.631-1.679-4.613-9.982L36.36 3.42Zm4.44 8.935a1.654 1.654 0 0 1-1.644 1.479v4a5.654 5.654 0 0 0 5.623-5.064l-3.979-.415ZM37.27 4a1 1 0 0 1-.908-.58l3.63-1.679A3 3 0 0 0 37.27 0v4ZM9.426 3.426A1 1 0 0 1 8.52 4V0a3 3 0 0 0-2.714 1.722l3.619 1.704Z" mask="url(#a)"/>
  <path stroke="#1DB4BE" stroke-width="1.5" d="M7 17v19a1 1 0 0 0 1 1h30a1 1 0 0 0 1-1V17"/>
  <path stroke="#1DB4BE" stroke-width="1.5" d="M27 37V26.5a1 1 0 0 0-1-1h-6a1 1 0 0 0-1 1V37"/>
</svg>
