<svg width="75" height="75" viewBox="0 0 89 90" fill="none" xmlns="http://www.w3.org/2000/svg">
<path fill-rule="evenodd" clip-rule="evenodd" d="M32.7006 56.8593C33.0912 57.2498 33.0912 57.883 32.7006 58.2735L20.6752 70.2989C20.2847 70.6894 19.6515 70.6894 19.261 70.2989C18.8705 69.9084 18.8705 69.2752 19.261 68.8847L31.2864 56.8593C31.6769 56.4687 32.3101 56.4687 32.7006 56.8593Z" fill="#6440B1"/>
<path fill-rule="evenodd" clip-rule="evenodd" d="M33.4125 56.1475C43.0646 65.7996 58.7137 65.7996 68.3658 56.1475C78.0179 46.4954 78.0179 30.8463 68.3658 21.1942C58.7137 11.5421 43.0646 11.5421 33.4125 21.1942C23.7604 30.8463 23.7604 46.4954 33.4125 56.1475ZM31.9983 57.5617C42.4314 67.9949 59.3469 67.9949 69.78 57.5617C80.2131 47.1286 80.2131 30.2131 69.78 19.78C59.3469 9.34688 42.4314 9.34688 31.9983 19.78C21.5652 30.2131 21.5652 47.1286 31.9983 57.5617Z" fill="#6440B1"/>
</svg>
