<svg width="68" height="65" viewBox="0 0 68 65" fill="none" xmlns="http://www.w3.org/2000/svg">
<rect x="0.00012207" y="33.3845" width="7.84614" height="2.61538" rx="1.30769" fill="#6440B1"/>
<rect x="60.1538" y="33.3845" width="7.84614" height="2.61538" rx="1.30769" fill="#6440B1"/>
<rect x="51" y="15.3942" width="7.84614" height="2.61538" rx="1.30769" transform="rotate(-45 51 15.3942)" fill="#6440B1"/>
<rect width="7.84614" height="2.61538" rx="1.30769" transform="matrix(-0.707107 -0.707107 -0.707107 0.707107 16.5514 15.3942)" fill="#6440B1"/>
<rect width="7.84614" height="2.61538" rx="1.30769" transform="matrix(-4.37114e-08 -1 -1 4.37114e-08 35.3077 8.53839)" fill="#6440B1"/>
<path d="M45.9044 42.405L45.9044 42.405L45.9099 42.3994C48.7674 39.4438 50.3253 35.5809 50.3253 31.5227C50.3253 22.6586 42.799 15.4432 33.6088 15.4432C25.2397 15.4432 18.1976 21.6481 17.0542 29.2795L17.051 29.303C16.4436 34.136 17.8712 38.7317 21.1672 42.2551C24.8157 46.2613 26.9149 51.4733 26.9149 56.5884V60.8076C26.9149 62.4645 28.2581 63.8076 29.9149 63.8076H37.459C39.1159 63.8076 40.459 62.4645 40.459 60.8076V56.5884C40.459 51.0025 42.3886 45.9852 45.9044 42.405Z" stroke="#6440B1" stroke-width="2" stroke-linejoin="round"/>
<path d="M26.8077 56.923H40.5385" stroke="#6440B1" stroke-width="2"/>
</svg>
