<svg width="74" height="61" viewBox="0 0 74 61" fill="none" xmlns="http://www.w3.org/2000/svg">
<path d="M72.6075 37.9519L62.0363 27.3921C61.774 27.131 61.4648 27 61.1072 27C60.7496 27 60.4388 27.131 60.1778 27.3921C59.9167 27.6541 59.7856 27.9629 59.7856 28.3202V33.6009H55.16C45.3462 33.6009 39.3236 36.371 37.0938 41.9121C36.3649 43.7541 36 46.0445 36 48.7801C36 51.0629 36.8737 54.163 38.622 58.0827C38.6628 58.1792 38.736 58.3434 38.8386 58.577C38.9426 58.8108 39.0354 59.0171 39.1171 59.1953C39.2001 59.3744 39.2904 59.5253 39.3867 59.6488C39.5514 59.8823 39.7443 60 39.9648 60C40.1713 60 40.3323 59.932 40.4498 59.7934C40.566 59.6563 40.6256 59.4845 40.6256 59.2779C40.6256 59.1545 40.6082 58.9725 40.5736 58.7317C40.5388 58.4919 40.5214 58.3298 40.5214 58.2469C40.4523 57.3125 40.4175 56.467 40.4175 55.7107C40.4175 54.3225 40.5388 53.0779 40.7802 51.9777C41.0203 50.8774 41.3542 49.9259 41.7812 49.1212C42.2082 48.3165 42.7588 47.6216 43.4332 47.0384C44.1076 46.4536 44.834 45.9764 45.611 45.6043C46.3894 45.2334 47.3039 44.9407 48.3569 44.7281C49.4098 44.5142 50.4704 44.367 51.537 44.2841C52.6036 44.2015 53.8115 44.1607 55.16 44.1607H59.7856V49.4411C59.7856 49.7984 59.9167 50.1075 60.1778 50.3683C60.4388 50.6303 60.7496 50.7613 61.1072 50.7613C61.4648 50.7613 61.774 50.6303 62.0363 50.3683L72.6075 39.8084C72.8689 39.5477 73 39.2385 73 38.88C73 38.5228 72.8689 38.2139 72.6075 37.9519Z" stroke="#6440B1" stroke-width="2"/>
<path d="M34.0657 37.3185C33.1366 35.9937 32.4761 33.4887 33.6627 32.1638C34.8606 30.839 37.1219 26.4859 37.6481 24.8939C39.6407 22.5114 39.5064 20.4072 38.0511 18.2919C38.0511 9.96424 38.8459 2.30459 27.8191 1.11334H27.1698C16.1429 2.30459 16.9377 9.96424 16.9377 18.2919C15.4712 20.4072 15.3481 22.5225 17.3407 24.8939C17.8669 26.4748 20.1282 30.839 21.3261 32.1638C22.5239 33.4887 21.8522 35.9937 20.9231 37.3185C19.9939 38.6434 10.5567 42.4732 5.25036 44.4549C-0.0671673 46.4366 1.26501 54.8867 1.26501 54.8867" stroke="#6440B1" stroke-width="2" stroke-miterlimit="10" stroke-linecap="round" stroke-linejoin="round"/>
</svg>
