<svg xmlns="http://www.w3.org/2000/svg" fill="none" viewBox="0 0 55 41">
  <path fill="#1DB4BE" fill-rule="evenodd" d="M42.647 40.904H55V38.18a5.939 5.939 0 0 0-3.3-5.341l-7.198-3.118c-.17-.085-.357-.292-.52-.568l4.807-.003c.084.008 2.065.189 3.653-.494a2.165 2.165 0 0 0 1.23-1.404 2.185 2.185 0 0 0-.314-1.858c-1.374-1.955-4.58-7.062-4.68-12.242-.002-.09-.292-8.899-8.993-8.97-1.28.01-2.464.227-3.541.628l.383 1.418c.949-.372 2.012-.565 3.16-.574 7.247.06 7.512 7.225 7.518 7.527.11 5.585 3.496 10.993 4.947 13.059.125.177.163.4.103.609a.688.688 0 0 1-.394.453c-1.237.532-2.915.381-3.002.378H43.79c-.473 0-.905.24-1.155.643a1.342 1.342 0 0 0-.063 1.313c.23.465.638 1.086 1.307 1.42l7.179 3.109a4.474 4.474 0 0 1 2.47 4.015v1.25H42.836" clip-rule="evenodd"/>
  <path fill="#1DB4BE" fill-rule="evenodd" d="M43.282 39.43H12.35v-1.647a5.166 5.166 0 0 1 2.694-4.54l6.57-3.584a3.421 3.421 0 0 0 1.783-3.002v-2.96l-.143-.17-.028-.034c-.002-.002-.047-.057-.122-.154a6.89 6.89 0 0 1-.152-.203l-.001-.004c-.11-.152-.248-.35-.4-.589l-.011-.016a14.277 14.277 0 0 1-.228-.366l-.016-.03c-.168-.279-.344-.595-.52-.944v-.002a15.04 15.04 0 0 1-.317-.676c-.041-.092-.081-.189-.122-.288l-.045-.11c-.038-.097-.077-.194-.119-.305-.074-.2-.145-.41-.213-.626l-.04-.13-.014-.046c-.07-.232-.136-.47-.192-.715l-.067-.291-.25-.162a1.468 1.468 0 0 1-.683-1.235v-2.946c0-.413.175-.798.494-1.086l.243-.22V7.504l-.02-.016c-.026-.532.006-2.161 1.195-3.517 1.22-1.393 3.303-2.098 6.19-2.098 2.874 0 4.953.7 6.175 2.082 1.434 1.621 1.197 3.695 1.195 3.713l-.006 4.683.243.22c.318.287.493.672.493 1.085V16.6c0 .643-.421 1.205-1.047 1.398l-.367.113-.118.364a15.419 15.419 0 0 1-2.087 4.208c-.218.31-.431.585-.616.794l-.183.21v3.038a3.4 3.4 0 0 0 1.889 3.058l7.036 3.517a5.142 5.142 0 0 1 2.858 4.625v1.505Zm-24.799-9.742-4.143 2.26a6.644 6.644 0 0 0-3.462 5.835v1.648H2.04v-1.324c0-1.598.872-3.066 2.313-3.853l4.9-3.074a3.051 3.051 0 0 0 1.59-2.681v-2.645l-.233-.218c-.02-.018-1.976-1.867-2.554-4.386l-.067-.292-.253-.162a1.17 1.17 0 0 1-.54-.982V17.27c0-.265.18-.58.494-.864l.242-.22-.002-3.961c.014-.212.397-5.198 6.63-5.198 1.762 0 3.246.407 4.419 1.21v3.485a2.933 2.933 0 0 0-.737 1.933V16.6c0 .224.026.444.075.657.02.086.06.164.087.246.04.124.072.251.13.368v.004c.19.39.464.737.81 1.014l.012.04c.044.169.091.337.141.5l.06.193c.01.034.022.069.034.102a17.108 17.108 0 0 0 .222.644c.022.06.047.115.07.175.061.154.122.302.185.45l.044.108.041.093.059.123c.071.157.142.31.216.457l.035.073a18.35 18.35 0 0 0 .374.7l.114.198c.105.182.207.348.305.503l.062.1c.179.275.333.5.461.674l.093.125.052.071v2.437c0 .713-.39 1.367-1.014 1.709l-1.949 1.063-.478.26Zm22.6 2.297-7.036-3.518a1.937 1.937 0 0 1-1.076-1.741v-2.49c.169-.207.347-.442.53-.7a16.853 16.853 0 0 0 2.175-4.271A2.922 2.922 0 0 0 37.39 16.6v-2.946c0-.71-.265-1.396-.736-1.933V7.804c.04-.405.202-2.816-1.541-4.805C33.6 1.274 31.146.4 27.816.4c-3.33 0-5.784.875-7.297 2.6-1.057 1.205-1.412 2.563-1.52 3.538-1.263-.652-2.75-.983-4.44-.983-7.65 0-8.096 6.521-8.1 6.628v3.372c-.477.52-.737 1.12-.737 1.716v2.544c0 .794.355 1.535.966 2.036.608 2.29 2.102 4.021 2.684 4.629v2.02c0 .58-.316 1.111-.863 1.41l-4.9 3.073a5.836 5.836 0 0 0-3.042 5.125v2.797h44.188v-2.978a6.608 6.608 0 0 0-3.672-5.942Z" clip-rule="evenodd"/>
</svg>
