<svg width="93" height="66" viewBox="0 0 93 66" fill="none" xmlns="http://www.w3.org/2000/svg">
<path d="M16.4374 1.87244L24.5567 6.92206C24.5567 6.92206 27.4721 9.03817 25.583 12.1715C23.6939 15.3048 12.4413 33.7504 12.4413 33.7504C12.4413 33.7504 10.6975 37.1744 6.85582 34.7313C3.01411 32.2882 1.57007 31.5435 1.57007 31.5435" stroke="#6440B1" stroke-width="2" stroke-miterlimit="10" stroke-linecap="round"/>
<path d="M12.0508 34.1591L16.8824 39.8717" stroke="#6440B1" stroke-width="2" stroke-miterlimit="10" stroke-linecap="round"/>
<path d="M25.583 12.1714L32.5489 14.6054C32.5489 14.6054 35.9456 15.2139 36.2817 15.3138" stroke="#6440B1" stroke-width="2" stroke-miterlimit="10" stroke-linecap="round"/>
<path d="M69.6855 13.3612C65.8256 14.5964 63.5551 14.1968 61.4299 13.1342C59.3047 12.0716 56.0624 11.0998 54.1824 11.1089C47.0076 11.1271 42.3304 13.0797 39.6148 13.9697C36.9084 14.8598 34.538 16.5127 34.0748 18.5198C33.2392 22.4887 30.8961 26.6119 30.8961 26.6119C30.8961 26.6119 28.8163 29.4183 32.8487 30.0722C40.5866 31.3255 44.3829 22.2889 44.3829 22.2889C44.3829 22.2889 46.8442 23.2425 51.149 22.2526C54.2097 24.1961 75.8522 39.0725 75.8522 39.0725C75.8522 39.0725 79.1853 41.9879 77.1237 44.9395C75.0621 47.8912 73.6634 48.0819 71.2567 46.8286C68.85 45.5753 58.4056 38.8545 58.4056 38.8545" stroke="#6440B1" stroke-width="2" stroke-miterlimit="10" stroke-linecap="round"/>
<path d="M81.3922 1.18219L71.3111 7.29441C71.3111 7.29441 68.2323 8.8656 69.5129 12.1715C70.7935 15.4773 83.2722 34.4407 83.2722 34.4407C83.2722 34.4407 84.9342 36.7475 87.0685 35.8302C89.2028 34.9129 92 33.1419 92 33.1419" stroke="#6440B1" stroke-width="2" stroke-miterlimit="10" stroke-linecap="round"/>
<path d="M82.7455 34.0228C82.7455 34.0228 78.8947 39.0452 76.7695 39.8717" stroke="#6440B1" stroke-width="2" stroke-miterlimit="10" stroke-linecap="round"/>
<path d="M72.4465 47.5552C72.5827 48.8811 72.4101 52.8591 65.7076 53.4767C62.5561 51.5422 53.801 46.32 53.801 46.32" stroke="#6440B1" stroke-width="2" stroke-miterlimit="10" stroke-linecap="round"/>
<path d="M65.2535 53.4766C65.2535 53.4766 64.645 61.0783 59.1049 58.5172C53.7556 56.0378 49.1692 53.6401 49.1692 53.6401" stroke="#6440B1" stroke-width="2" stroke-miterlimit="10" stroke-linecap="round"/>
<path d="M58.0511 58.2992C58.0511 58.2992 54.5182 66.8817 44.3191 60.0339" stroke="#6440B1" stroke-width="2" stroke-miterlimit="10" stroke-linecap="round"/>
<path d="M44.3012 60.0883C42.8844 62.6858 38.9791 65.0744 36.9084 63.7938C32.6399 61.1509 35.0375 59.825 36.9447 56.2648C38.8611 52.7137 41.3041 50.9336 43.5474 52.1415C45.7907 53.3495 46.2357 56.5463 44.3012 60.0883Z" stroke="#6440B1" stroke-width="2" stroke-miterlimit="10" stroke-linecap="round"/>
<path d="M37.0628 55.5201C33.212 61.0874 31.6135 60.8876 29.5428 59.607C26.6275 57.273 27.6174 55.1478 29.7154 51.6966C33.2846 45.8205 35.8821 44.4582 38.1254 45.6661C40.3595 46.874 42.4757 49.0719 37.0628 55.5201Z" stroke="#6440B1" stroke-width="2" stroke-miterlimit="10" stroke-linecap="round"/>
<path d="M22.4315 55.2567C20.4517 53.958 19.8886 51.297 21.1964 49.308L26.7092 40.8889C28.0079 38.909 30.669 38.346 32.6579 39.6538C34.6378 40.9525 35.2009 43.6135 33.8931 45.6025L28.3803 54.0216C27.0725 56.0015 24.4114 56.5646 22.4315 55.2567Z" stroke="#6440B1" stroke-width="2" stroke-miterlimit="10" stroke-linecap="round"/>
<path d="M17.0187 48.6813L16.1468 48.1092C14.403 46.9648 13.9126 44.6307 15.0569 42.887L18.0813 38.2642C18.6353 37.4196 19.4708 36.8656 20.3881 36.6567C21.3508 36.4296 22.4043 36.5931 23.3034 37.1744L24.1753 37.7465C25.9191 38.8909 26.4095 41.225 25.2652 42.9687L22.2408 47.5915C21.1056 49.3352 18.7624 49.8257 17.0187 48.6813Z" stroke="#6440B1" stroke-width="2" stroke-miterlimit="10" stroke-linecap="round"/>
</svg>
