<svg width="79" height="61" viewBox="0 0 79 61" fill="none" xmlns="http://www.w3.org/2000/svg">
<path d="M77.7246 59.1121C77.803 56.9095 77.84 53.9442 77.7223 51.7039C77.5286 48.0163 74.9444 46.2282 72.2796 45.5933C71.7597 45.4735 69.733 45.012 68.1806 44.6619C65.6576 44.0928 64.0174 43.7314 63.5793 43.6546C63.4312 43.6283 62.6044 43.3164 61.4965 42.871C64.0807 42.3178 65.8933 41.2427 68.5508 38.9153C69.5699 38.0264 69.7577 36.4681 68.9901 35.3404C68.2063 34.1909 67.4716 31.4571 66.8377 27.5829C66.5587 25.8778 66.3667 24.4628 66.0258 21.7495L65.9828 21.4057C65.1914 15.1167 63.8614 12.3631 58.601 7.90332C55.6392 5.39263 51.9886 4.90336 48.0695 5.88634C45.5877 6.5088 43.2226 7.68086 41.787 8.68969C41.5114 8.88337 40.7032 9.35645 40.6189 9.41168" stroke="#6440B1" stroke-width="2" stroke-linecap="round" stroke-linejoin="round"/>
<path d="M55.7851 57.904C55.9958 56.4636 56.0739 54.4576 55.746 52.3095C55.1822 48.6154 53.5281 45.7961 50.428 44.5639C43.8462 41.9481 37.2455 38.8228 36.7947 38.2712C36.4295 37.7039 36.2669 36.5722 36.3215 36.508C37.4972 35.1238 39.5815 31.0736 40.4196 28.7711C42.413 26.006 42.6487 23.007 41.0855 20.1066L41.089 19.283C41.0914 18.8547 41.0914 18.8547 41.0933 18.424C41.1349 7.10385 38.7656 2.11178 29.085 1.00447C28.2176 0.997339 28.1426 0.998032 28.0263 1.01172C18.153 2.14691 16.0707 7.02312 16.1418 19.2876L16.1446 20.1059C14.5809 23.0068 14.8168 26.0061 16.8112 28.7713C17.6496 31.0748 19.7328 35.124 20.9081 36.5078C20.9622 36.5714 20.8018 37.7015 20.355 38.3783C19.9861 38.8201 13.4114 41.9371 6.80173 44.5639C3.70156 45.7961 2.04751 48.6155 1.48385 52.3095C1.15612 54.4574 1.23535 56.4906 1.44566 57.9041" stroke="#6440B1" stroke-width="2" stroke-linecap="round" stroke-linejoin="round"/>
</svg>
