<svg width="73" height="75" viewBox="0 0 73 52" fill="none" xmlns="http://www.w3.org/2000/svg">
<path fill-rule="evenodd" clip-rule="evenodd" d="M3.45755 19.2062L46.5424 4.97828C47.7098 4.59276 48.9126 5.46218 48.9126 6.69163V40.9283C48.9126 42.1582 47.7089 43.0277 46.5412 42.6412L3.45639 28.381C2.71774 28.1365 2.21899 27.4461 2.21899 26.668V20.9196C2.21899 20.1411 2.71831 19.4504 3.45755 19.2062ZM2.8304 17.3071L45.9152 3.07916C48.3767 2.2663 50.9126 4.09941 50.9126 6.69163V40.9283C50.9126 43.5216 48.3748 45.3548 45.9128 44.5399L36.6267 41.4664L36.6203 44.1762L36.6202 44.2292L36.6144 44.282C36.3624 46.5992 35.2119 48.5997 33.3395 50.2034C30.9968 52.2099 28.0186 52.2635 25.1927 50.9223C20.4356 49.315 16.8293 48.0532 14.3735 47.1359C12.5449 46.4528 11.1466 45.3056 10.2519 43.7661C9.3677 42.2446 9.01519 40.4096 9.14097 38.3921V32.3692L2.82796 30.2797C1.27057 29.7642 0.218994 28.3085 0.218994 26.668V20.9196C0.218994 19.2782 1.27176 17.8218 2.8304 17.3071ZM11.141 33.0311V38.4239V38.4563L11.1389 38.4886C11.0268 40.2168 11.3341 41.6479 11.9811 42.7612C12.6224 43.8648 13.6372 44.7258 15.0733 45.2623C17.5085 46.1719 21.1097 47.432 25.8898 49.0467L25.9482 49.0664L26.0037 49.0932C28.3216 50.2095 30.4284 50.0634 32.0385 48.6844C33.563 47.3787 34.4196 45.8413 34.6204 44.1166L34.6282 40.8049L11.141 33.0311Z" fill="#6440B1"/>
<path d="M55.1671 23.5332C55.1671 22.8766 55.6994 22.3443 56.356 22.3443H71.8112C72.4677 22.3443 73 22.8766 73 23.5332C73 24.1897 72.4677 24.722 71.8112 24.722H56.356C55.6994 24.722 55.1671 24.1897 55.1671 23.5332Z" fill="#6440B1"/>
<path d="M56.0078 14.3952C55.5435 13.9309 55.5435 13.1782 56.0078 12.7139L66.9362 1.78545C67.4005 1.32117 68.1533 1.32117 68.6175 1.78545C69.0818 2.24973 69.0818 3.00247 68.6175 3.46675L57.6891 14.3952C57.2248 14.8595 56.472 14.8595 56.0078 14.3952Z" fill="#6440B1"/>
<path d="M56.0076 33.8847C56.4719 33.4204 57.2246 33.4204 57.6889 33.8847L68.6174 44.8131C69.0817 45.2774 69.0817 46.0301 68.6174 46.4944C68.1531 46.9587 67.4004 46.9587 66.9361 46.4944L56.0076 35.566C55.5433 35.1017 55.5433 34.3489 56.0076 33.8847Z" fill="#6440B1"/>
</svg>
