<svg width="224" height="40" viewBox="0 0 224 48" fill="none" xmlns="http://www.w3.org/2000/svg">
<g clip-path="url(#clip0)">
<rect width="223" height="48" transform="translate(0.131348)" fill="white"/>
<path fill-rule="evenodd" clip-rule="evenodd" d="M57.6343 22.051C58.5418 22.051 59.2986 21.3134 59.2986 20.4038C59.2986 19.5187 58.5418 18.7812 57.6343 18.7812C56.701 18.7812 55.9702 19.5187 55.9702 20.4038C55.9702 21.3134 56.701 22.051 57.6343 22.051Z" fill="white"/>
<path d="M6.21235 43.6045H7.51235V36.0775H10.1903V34.9335H3.52135V36.0775H6.21235V43.6045ZM15.7575 43.6045H16.9275V39.1715C16.9275 37.8455 16.2515 37.1695 14.9125 37.1695C13.9505 37.1695 13.1055 37.7025 12.6895 38.2095V34.9335H11.5195V43.6045H12.6895V39.1195C13.0275 38.6515 13.6905 38.2095 14.4185 38.2095C15.2245 38.2095 15.7575 38.5215 15.7575 39.5615V43.6045ZM18.4039 40.4585C18.4039 42.4345 19.7819 43.7605 21.6539 43.7605C22.6679 43.7605 23.5519 43.4355 24.1759 42.8245L23.6299 42.0575C23.1619 42.5385 22.4339 42.7985 21.7709 42.7985C20.5099 42.7985 19.7299 41.9145 19.6389 40.8485H24.6049V40.5625C24.6049 38.6385 23.4349 37.1695 21.5499 37.1695C19.7169 37.1695 18.4039 38.6385 18.4039 40.4585ZM21.5499 38.1315C22.8759 38.1315 23.4349 39.1715 23.4609 40.0035H19.6259C19.6909 39.1455 20.2889 38.1315 21.5499 38.1315ZM28.9129 42.3825C29.6539 43.2015 30.7849 43.7605 32.3319 43.7605C34.6719 43.7605 35.6079 42.4995 35.6079 41.1475C35.6079 39.3015 33.9569 38.8595 32.5399 38.4825C31.4609 38.2095 30.5249 37.9625 30.5249 37.1825C30.5249 36.4545 31.1879 35.9605 32.1499 35.9605C33.0859 35.9605 33.9959 36.2725 34.6589 36.9745L35.4129 36.0125C34.6459 35.2325 33.5929 34.8035 32.2539 34.8035C30.4469 34.8035 29.1859 35.8435 29.1859 37.2735C29.1859 39.0415 30.7979 39.4445 32.1889 39.8085C33.2939 40.0945 34.2819 40.3545 34.2819 41.2645C34.2819 41.8885 33.7879 42.6035 32.3839 42.6035C31.1749 42.6035 30.2389 42.0315 29.6539 41.3815L28.9129 42.3825ZM44.7189 43.6045H45.8889V39.0675C45.8889 37.8065 45.2649 37.1695 44.1079 37.1695C43.1849 37.1695 42.3529 37.7545 41.9889 38.3395C41.7939 37.6635 41.2349 37.1695 40.2859 37.1695C39.3499 37.1695 38.5179 37.8195 38.2579 38.2095V37.3255H37.0879V43.6045H38.2579V39.1195C38.5699 38.6645 39.1809 38.2095 39.7919 38.2095C40.5849 38.2095 40.8969 38.6905 40.8969 39.4185V43.6045H42.0669V39.1065C42.3659 38.6515 42.9899 38.2095 43.6269 38.2095C44.3939 38.2095 44.7189 38.6905 44.7189 39.4185V43.6045ZM51.6259 43.6045H52.7959V39.3665C52.7959 37.7675 51.6389 37.1695 50.2739 37.1695C49.2599 37.1695 48.4019 37.5075 47.6999 38.1965L48.2069 39.0025C48.7659 38.4435 49.3769 38.1705 50.0919 38.1705C50.9889 38.1705 51.6259 38.6385 51.6259 39.4185V40.4585C51.1449 39.8995 50.4169 39.6265 49.5719 39.6265C48.5189 39.6265 47.3879 40.2505 47.3879 41.6805C47.3879 43.0585 48.5319 43.7605 49.5719 43.7605C50.4169 43.7605 51.1319 43.4615 51.6259 42.9155V43.6045ZM51.6259 42.2265C51.2749 42.6945 50.6639 42.9415 50.0139 42.9415C49.1689 42.9415 48.5709 42.4345 48.5709 41.6935C48.5709 40.9525 49.1689 40.4455 50.0139 40.4455C50.6639 40.4455 51.2749 40.6925 51.6259 41.1605V42.2265ZM54.6709 43.6045H55.8409V34.9335H54.6709V43.6045ZM57.705 43.6045H58.875V34.9335H57.705V43.6045ZM64.1168 43.6045H68.2898C69.8888 43.6045 70.7988 42.6295 70.7988 41.2645C70.7988 40.2115 70.0448 39.2755 69.1218 39.1325C69.9148 38.9635 70.6298 38.2355 70.6298 37.1435C70.6298 35.8825 69.7328 34.9335 68.1858 34.9335H64.1168V43.6045ZM65.4168 38.6125V36.0775H67.9388C68.8098 36.0775 69.2908 36.6365 69.2908 37.3515C69.2908 38.0665 68.8098 38.6125 67.9388 38.6125H65.4168ZM65.4168 42.4605V39.7565H68.0038C68.9658 39.7565 69.4598 40.3805 69.4598 41.0955C69.4598 41.9405 68.9138 42.4605 68.0038 42.4605H65.4168ZM76.6188 43.6045H77.7888V37.3255H76.6188V41.8365C76.2678 42.3045 75.6048 42.7205 74.8768 42.7205C74.0708 42.7205 73.5508 42.4085 73.5508 41.3685V37.3255H72.3808V41.7585C72.3808 43.0845 73.0438 43.7605 74.3828 43.7605C75.3448 43.7605 76.1378 43.2665 76.6188 42.7465V43.6045ZM79.0965 42.7855C79.7335 43.4355 80.6565 43.7605 81.7095 43.7605C83.3605 43.7605 84.2445 42.9155 84.2445 41.8365C84.2445 40.3935 82.9445 40.0945 81.8525 39.8475C81.0725 39.6655 80.3965 39.4835 80.3965 38.9375C80.3965 38.4305 80.8905 38.1185 81.6835 38.1185C82.4765 38.1185 83.1785 38.4435 83.5425 38.8855L84.0625 38.0665C83.5295 37.5595 82.7495 37.1695 81.6705 37.1695C80.1365 37.1695 79.2785 38.0275 79.2785 39.0285C79.2785 40.3805 80.5265 40.6665 81.5925 40.9135C82.3985 41.0955 83.1135 41.3035 83.1135 41.9275C83.1135 42.4605 82.6455 42.8245 81.7615 42.8245C80.9165 42.8245 80.0845 42.3955 79.6555 41.9275L79.0965 42.7855ZM86.2956 36.2725C86.7116 36.2725 87.0496 35.9475 87.0496 35.5315C87.0496 35.1155 86.7116 34.7775 86.2956 34.7775C85.8926 34.7775 85.5416 35.1155 85.5416 35.5315C85.5416 35.9475 85.8926 36.2725 86.2956 36.2725ZM85.7236 43.6045H86.8936V37.3255H85.7236V43.6045ZM92.9958 43.6045H94.1658V39.1975C94.1658 37.8715 93.4768 37.1695 92.1508 37.1695C91.1758 37.1695 90.3438 37.7025 89.9278 38.2095V37.3255H88.7578V43.6045H89.9278V39.1195C90.2658 38.6515 90.9288 38.2095 91.6568 38.2095C92.4628 38.2095 92.9958 38.5475 92.9958 39.5875V43.6045ZM95.6295 40.4585C95.6295 42.4345 97.0075 43.7605 98.8795 43.7605C99.8935 43.7605 100.777 43.4355 101.401 42.8245L100.855 42.0575C100.387 42.5385 99.6595 42.7985 98.9965 42.7985C97.7355 42.7985 96.9555 41.9145 96.8645 40.8485H101.83V40.5625C101.83 38.6385 100.66 37.1695 98.7755 37.1695C96.9425 37.1695 95.6295 38.6385 95.6295 40.4585ZM98.7755 38.1315C100.101 38.1315 100.66 39.1715 100.686 40.0035H96.8515C96.9165 39.1455 97.5145 38.1315 98.7755 38.1315ZM102.748 42.7855C103.385 43.4355 104.308 43.7605 105.361 43.7605C107.012 43.7605 107.896 42.9155 107.896 41.8365C107.896 40.3935 106.596 40.0945 105.504 39.8475C104.724 39.6655 104.048 39.4835 104.048 38.9375C104.048 38.4305 104.542 38.1185 105.335 38.1185C106.128 38.1185 106.83 38.4435 107.194 38.8855L107.714 38.0665C107.181 37.5595 106.401 37.1695 105.322 37.1695C103.788 37.1695 102.93 38.0275 102.93 39.0285C102.93 40.3805 104.178 40.6665 105.244 40.9135C106.05 41.0955 106.765 41.3035 106.765 41.9275C106.765 42.4605 106.297 42.8245 105.413 42.8245C104.568 42.8245 103.736 42.3955 103.307 41.9275L102.748 42.7855ZM108.829 42.7855C109.466 43.4355 110.389 43.7605 111.442 43.7605C113.093 43.7605 113.977 42.9155 113.977 41.8365C113.977 40.3935 112.677 40.0945 111.585 39.8475C110.805 39.6655 110.129 39.4835 110.129 38.9375C110.129 38.4305 110.623 38.1185 111.416 38.1185C112.209 38.1185 112.911 38.4435 113.275 38.8855L113.795 38.0665C113.262 37.5595 112.482 37.1695 111.403 37.1695C109.869 37.1695 109.011 38.0275 109.011 39.0285C109.011 40.3805 110.259 40.6665 111.325 40.9135C112.131 41.0955 112.846 41.3035 112.846 41.9275C112.846 42.4605 112.378 42.8245 111.494 42.8245C110.649 42.8245 109.817 42.3955 109.388 41.9275L108.829 42.7855ZM123.826 43.6045H125.334L123.111 40.1335C124.216 39.9905 125.269 39.1585 125.269 37.5985C125.269 35.9995 124.138 34.9335 122.487 34.9335H118.834V43.6045H120.134V40.2635H121.759L123.826 43.6045ZM123.93 37.5985C123.93 38.5085 123.254 39.1195 122.318 39.1195H120.134V36.0775H122.318C123.254 36.0775 123.93 36.6885 123.93 37.5985ZM126.06 40.4585C126.06 42.4345 127.438 43.7605 129.31 43.7605C130.324 43.7605 131.208 43.4355 131.832 42.8245L131.286 42.0575C130.818 42.5385 130.09 42.7985 129.427 42.7985C128.166 42.7985 127.386 41.9145 127.295 40.8485H132.261V40.5625C132.261 38.6385 131.091 37.1695 129.206 37.1695C127.373 37.1695 126.06 38.6385 126.06 40.4585ZM129.206 38.1315C130.532 38.1315 131.091 39.1715 131.117 40.0035H127.282C127.347 39.1455 127.945 38.1315 129.206 38.1315ZM134.011 43.6045H135.181V38.3525H136.455V37.3255H135.181V36.9095C135.181 36.1555 135.532 35.7655 136.117 35.7655C136.325 35.7655 136.52 35.8175 136.676 35.9085L136.949 35.0375C136.676 34.8815 136.325 34.8035 135.922 34.8035C134.804 34.8035 134.011 35.5575 134.011 36.9095V37.3255H132.971V38.3525H134.011V43.6045ZM137.181 40.4585C137.181 42.4345 138.559 43.7605 140.431 43.7605C141.445 43.7605 142.329 43.4355 142.953 42.8245L142.407 42.0575C141.939 42.5385 141.211 42.7985 140.548 42.7985C139.287 42.7985 138.507 41.9145 138.416 40.8485H143.382V40.5625C143.382 38.6385 142.212 37.1695 140.327 37.1695C138.494 37.1695 137.181 38.6385 137.181 40.4585ZM140.327 38.1315C141.653 38.1315 142.212 39.1715 142.238 40.0035H138.403C138.468 39.1455 139.066 38.1315 140.327 38.1315ZM144.846 43.6045H146.016V39.2365C146.289 38.7685 147.082 38.3265 147.667 38.3265C147.823 38.3265 147.953 38.3395 148.07 38.3655V37.1825C147.238 37.1825 146.497 37.6635 146.016 38.2875V37.3255H144.846V43.6045ZM149.238 43.6045H150.408V39.2365C150.681 38.7685 151.474 38.3265 152.059 38.3265C152.215 38.3265 152.345 38.3395 152.462 38.3655V37.1825C151.63 37.1825 150.889 37.6635 150.408 38.2875V37.3255H149.238V43.6045ZM157.505 43.6045H158.675V39.3665C158.675 37.7675 157.518 37.1695 156.153 37.1695C155.139 37.1695 154.281 37.5075 153.579 38.1965L154.086 39.0025C154.645 38.4435 155.256 38.1705 155.971 38.1705C156.868 38.1705 157.505 38.6385 157.505 39.4185V40.4585C157.024 39.8995 156.296 39.6265 155.451 39.6265C154.398 39.6265 153.267 40.2505 153.267 41.6805C153.267 43.0585 154.411 43.7605 155.451 43.7605C156.296 43.7605 157.011 43.4615 157.505 42.9155V43.6045ZM157.505 42.2265C157.154 42.6945 156.543 42.9415 155.893 42.9415C155.048 42.9415 154.45 42.4345 154.45 41.6935C154.45 40.9525 155.048 40.4455 155.893 40.4455C156.543 40.4455 157.154 40.6925 157.505 41.1605V42.2265ZM160.55 43.6045H161.72V34.9335H160.55V43.6045ZM173.059 43.6045H174.32V34.9335H173.02V41.4335L168.301 34.9335H166.962V43.6045H168.262V36.9485L173.059 43.6045ZM175.826 40.4585C175.826 42.4345 177.204 43.7605 179.076 43.7605C180.09 43.7605 180.974 43.4355 181.598 42.8245L181.052 42.0575C180.584 42.5385 179.856 42.7985 179.193 42.7985C177.932 42.7985 177.152 41.9145 177.061 40.8485H182.027V40.5625C182.027 38.6385 180.857 37.1695 178.972 37.1695C177.139 37.1695 175.826 38.6385 175.826 40.4585ZM178.972 38.1315C180.298 38.1315 180.857 39.1715 180.883 40.0035H177.048C177.113 39.1455 177.711 38.1315 178.972 38.1315ZM185.219 43.7605C185.83 43.7605 186.194 43.5915 186.441 43.3575L186.142 42.4735C186.025 42.6035 185.778 42.7205 185.505 42.7205C185.102 42.7205 184.894 42.3955 184.894 41.9535V38.3525H186.168V37.3255H184.894V35.6095H183.724V37.3255H182.684V38.3525H183.724V42.2135C183.724 43.2015 184.231 43.7605 185.219 43.7605ZM192.911 43.6045H194.12L196.096 37.3255H194.874L193.444 42.1095L191.871 37.3255H190.857L189.284 42.1095L187.854 37.3255H186.632L188.608 43.6045H189.817L191.364 38.7815L192.911 43.6045ZM199.92 43.7605C201.883 43.7605 203.092 42.2785 203.092 40.4585C203.092 38.6515 201.883 37.1695 199.92 37.1695C197.97 37.1695 196.748 38.6515 196.748 40.4585C196.748 42.2785 197.97 43.7605 199.92 43.7605ZM199.92 42.7205C198.672 42.7205 197.97 41.6545 197.97 40.4585C197.97 39.2755 198.672 38.2095 199.92 38.2095C201.181 38.2095 201.87 39.2755 201.87 40.4585C201.87 41.6545 201.181 42.7205 199.92 42.7205ZM204.577 43.6045H205.747V39.2365C206.02 38.7685 206.813 38.3265 207.398 38.3265C207.554 38.3265 207.684 38.3395 207.801 38.3655V37.1825C206.969 37.1825 206.228 37.6635 205.747 38.2875V37.3255H204.577V43.6045ZM213.182 43.6045H214.664L211.934 40.1725L214.638 37.3255H213.169L210.14 40.5105V34.9335H208.97V43.6045H210.14V41.8625L211.089 40.9005L213.182 43.6045ZM215.516 42.9285C215.516 43.3705 215.88 43.7475 216.322 43.7475C216.764 43.7475 217.141 43.3705 217.141 42.9285C217.141 42.4865 216.764 42.1225 216.322 42.1225C215.88 42.1225 215.516 42.4865 215.516 42.9285Z" fill="#545454"/>
<path fill-rule="evenodd" clip-rule="evenodd" d="M22.7983 10.5944C21.4388 6.57153 17.6963 3.67322 13.3007 3.67322C12.5827 3.67322 11.8822 3.75238 11.2055 3.8989C10.7957 3.98857 10.3951 4.10443 10.0052 4.24361C10.0563 4.4028 10.1064 4.56227 10.1575 4.72175C10.4044 5.49666 10.6615 6.30512 10.9312 7.11098C11.0891 7.58292 11.2524 8.05185 11.4185 8.51328C11.9464 9.97575 12.5159 11.3427 13.1333 12.3687C13.4052 12.8207 13.6878 13.1982 13.978 13.4963C14.3989 13.9268 14.8394 14.1848 15.3016 14.1848C15.9784 14.1843 16.6069 13.6526 17.1945 12.7953C17.6971 13.8239 18.2106 15.1611 18.6561 16.4298C17.7147 17.2554 16.6213 17.7521 15.3031 17.7524H15.3016C14.301 17.7524 13.4317 17.4607 12.6565 16.9658C12.2898 16.7312 11.9389 16.4588 11.6134 16.1335C10.6861 15.2062 9.91797 13.9324 9.24264 12.4731C9.00639 11.9621 8.78029 11.4299 8.56448 10.8778C7.963 9.34448 7.42722 7.68483 6.90045 6.03151C6.54537 6.33174 6.21073 6.65731 5.89978 7.00433C4.25886 8.83051 3.25537 11.2635 3.25537 13.9312C3.25537 16.262 4.02219 18.4133 5.30986 20.1381C5.6008 20.528 5.91881 20.8967 6.26091 21.24C6.62332 20.192 6.96501 19.1153 7.28767 18.0991C7.7183 16.7413 8.15414 15.377 8.62523 14.0757C9.34103 15.4389 10.1694 16.6086 11.1665 17.4702C10.9753 18.055 10.7909 18.6354 10.6119 19.1991C10.1714 20.5873 9.72711 21.9852 9.24447 23.3123C9.62266 23.4838 10.0131 23.6328 10.414 23.7564C11.329 24.0364 12.2982 24.1897 13.3007 24.1897C16.0002 24.1897 18.4515 23.0952 20.2579 21.3209C20.6038 20.9819 20.9235 20.6189 21.2193 20.2333C21.1074 19.8863 20.9974 19.5389 20.8869 19.192C20.6413 18.4184 20.3842 17.6114 20.1146 16.8077C19.9559 16.3346 19.7938 15.8659 19.6271 15.4038C19.1004 13.943 18.5317 12.575 17.9136 11.5483C17.6424 11.096 17.3598 10.718 17.0687 10.4202C16.9643 10.3128 16.8574 10.2158 16.7504 10.1312C16.4278 9.87702 16.0948 9.73222 15.7472 9.73222C15.071 9.73222 14.4407 10.2639 13.853 11.122C13.3491 10.0922 12.8371 8.75653 12.3905 7.48764C12.508 7.3843 12.6282 7.28628 12.7507 7.19331C13.6098 6.54404 14.5915 6.1645 15.7464 6.1645C15.7469 6.1645 15.7482 6.1645 15.7496 6.1645C16.748 6.1645 17.6159 6.45567 18.3906 6.95021C18.7588 7.18481 19.1077 7.45684 19.4342 7.78198C20.3615 8.7096 21.1286 9.9841 21.804 11.444C22.0408 11.9555 22.2659 12.4882 22.4827 13.0403C22.756 13.7385 23.016 14.4636 23.267 15.2017C23.3176 14.785 23.3473 14.3619 23.3473 13.9312C23.3473 12.763 23.1525 11.6412 22.7983 10.5944Z" fill="#46275E"/>
<mask id="mask0" mask-type="alpha" maskUnits="userSpaceOnUse" x="3" y="3" width="21" height="22">
<path fill-rule="evenodd" clip-rule="evenodd" d="M22.7983 10.5944C21.4388 6.57153 17.6963 3.67322 13.3007 3.67322C12.5827 3.67322 11.8822 3.75238 11.2055 3.8989C10.7957 3.98857 10.3951 4.10443 10.0052 4.24361C10.0563 4.4028 10.1064 4.56227 10.1575 4.72175C10.4044 5.49666 10.6615 6.30512 10.9312 7.11098C11.0891 7.58292 11.2524 8.05185 11.4185 8.51328C11.9464 9.97575 12.5159 11.3427 13.1333 12.3687C13.4052 12.8207 13.6878 13.1982 13.978 13.4963C14.3989 13.9268 14.8394 14.1848 15.3016 14.1848C15.9784 14.1843 16.6069 13.6526 17.1945 12.7953C17.6971 13.8239 18.2106 15.1611 18.6561 16.4298C17.7147 17.2554 16.6213 17.7521 15.3031 17.7524H15.3016C14.301 17.7524 13.4317 17.4607 12.6565 16.9658C12.2898 16.7312 11.9389 16.4588 11.6134 16.1335C10.6861 15.2062 9.91797 13.9324 9.24264 12.4731C9.00639 11.9621 8.78029 11.4299 8.56448 10.8778C7.963 9.34448 7.42722 7.68483 6.90045 6.03151C6.54537 6.33174 6.21073 6.65731 5.89978 7.00433C4.25886 8.83051 3.25537 11.2635 3.25537 13.9312C3.25537 16.262 4.02219 18.4133 5.30986 20.1381C5.6008 20.528 5.91881 20.8967 6.26091 21.24C6.62332 20.192 6.96501 19.1153 7.28767 18.0991C7.7183 16.7413 8.15414 15.377 8.62523 14.0757C9.34103 15.4389 10.1694 16.6086 11.1665 17.4702C10.9753 18.055 10.7909 18.6354 10.6119 19.1991C10.1714 20.5873 9.72711 21.9852 9.24447 23.3123C9.62266 23.4838 10.0131 23.6328 10.414 23.7564C11.329 24.0364 12.2982 24.1897 13.3007 24.1897C16.0002 24.1897 18.4515 23.0952 20.2579 21.3209C20.6038 20.9819 20.9235 20.6189 21.2193 20.2333C21.1074 19.8863 20.9974 19.5389 20.8869 19.192C20.6413 18.4184 20.3842 17.6114 20.1146 16.8077C19.9559 16.3346 19.7938 15.8659 19.6271 15.4038C19.1004 13.943 18.5317 12.575 17.9136 11.5483C17.6424 11.096 17.3598 10.718 17.0687 10.4202C16.9643 10.3128 16.8574 10.2158 16.7504 10.1312C16.4278 9.87702 16.0948 9.73222 15.7472 9.73222C15.071 9.73222 14.4407 10.2639 13.853 11.122C13.3491 10.0922 12.8371 8.75653 12.3905 7.48764C12.508 7.3843 12.6282 7.28628 12.7507 7.19331C13.6098 6.54404 14.5915 6.1645 15.7464 6.1645C15.7469 6.1645 15.7482 6.1645 15.7496 6.1645C16.748 6.1645 17.6159 6.45567 18.3906 6.95021C18.7588 7.18481 19.1077 7.45684 19.4342 7.78198C20.3615 8.7096 21.1286 9.9841 21.804 11.444C22.0408 11.9555 22.2659 12.4882 22.4827 13.0403C22.756 13.7385 23.016 14.4636 23.267 15.2017C23.3176 14.785 23.3473 14.3619 23.3473 13.9312C23.3473 12.763 23.1525 11.6412 22.7983 10.5944Z" fill="white"/>
</mask>
<g mask="url(#mask0)">
<path fill-rule="evenodd" clip-rule="evenodd" d="M2.88623 3.25314H23.6962V24.5016H2.88623V3.25314Z" fill="#6440B1"/>
</g>
<path fill-rule="evenodd" clip-rule="evenodd" d="M125.067 20.3263C124.868 19.9702 124.017 18.8508 124.017 18.8508C123.041 20.8604 121.263 21.5219 119.712 21.5219C116.057 21.5219 115.983 19.3847 115.983 19.2578C115.983 19.2578 116.008 19.2324 116.033 19.2324C116.208 19.2831 116.909 19.3339 117.209 19.3339C122.365 19.3339 122.465 15.6451 122.465 15.2891V15.2635C122.465 11.702 119.061 11.6512 118.711 11.6512H118.686C115.207 11.6512 112.954 14.1954 112.954 17.8077C112.954 18.1712 112.961 18.6842 113.043 19.2575C112.578 20.5545 111.752 20.8604 111.153 20.8604C110.127 20.8604 109.926 19.8936 109.926 19.3339V5.0624H106.197V7.35189H107.248V20.4536C107.248 22.1324 108.449 23.5825 110.402 23.5825C112.306 23.5825 113.425 22.4637 113.913 21.5973C114.742 22.7894 116.285 23.7608 119.161 23.7608C123.166 23.7608 125.118 21.2422 125.118 20.479C125.118 20.4536 125.118 20.4026 125.067 20.3263ZM54.8767 9.89604C55.7773 9.89604 56.5286 9.1328 56.5286 8.19167C56.5286 7.2757 55.7773 6.51246 54.8767 6.51246C53.9504 6.51246 53.2247 7.2757 53.2247 8.19167C53.2247 9.1328 53.9504 9.89604 54.8767 9.89604ZM118.31 13.9414C116.634 13.9414 115.757 15.5436 115.757 17.019C115.757 17.07 116.033 17.1976 116.934 17.1976C119.712 17.1976 119.762 15.4672 119.762 15.2129C119.762 14.0173 118.66 13.9414 118.31 13.9414ZM100.341 21.3185C99.7156 21.3185 99.1402 21.0894 99.1402 21.0894V14.2209C99.1402 14.2209 100.016 14.0426 100.541 14.0426C101.067 14.0426 103.795 14.1699 103.795 17.4769C103.795 21.2167 100.967 21.3185 100.341 21.3185ZM90.7303 18.2653C90.7303 19.5629 89.7797 21.064 88.078 21.064C86 21.064 85.9752 18.825 85.9752 18.1636C85.9752 14.9073 88.253 13.9664 89.4792 13.9664C90.3794 13.9664 90.7303 14.1189 90.7303 14.1189V18.2653ZM66.8146 18.2148C66.8146 19.4865 65.9133 21.0386 64.2366 21.0386C62.1588 21.0386 62.1093 18.7743 62.1093 18.1382C62.1093 14.9073 64.2618 13.9664 65.5633 13.9664C66.4642 13.9664 66.8146 14.1189 66.8146 14.1189V18.2148ZM100.742 11.7021C100.066 11.7021 99.1402 11.982 99.1402 11.982V5.06229H95.4358V7.352H96.4872V19.3222C96.0194 20.59 95.2026 20.9113 94.6096 20.9113C93.5835 20.9113 93.383 19.9194 93.383 19.3846V12.1347C93.383 12.1095 91.5313 11.6511 90.0044 11.6511C84.849 11.6511 83.1718 15.2892 83.1718 18.5454C83.1718 18.8475 83.1948 19.312 83.2835 19.841C82.8023 20.6719 82.1568 20.8861 81.6552 20.8861C80.6043 20.8861 80.4038 19.9701 80.4038 19.4362V15.3146C80.4038 12.9233 78.7771 11.8546 76.8255 11.8546C74.6474 11.8546 73.6716 13.1522 73.6716 13.1522C73.6218 13.2286 73.5964 13.254 73.5719 13.254C73.5467 13.254 73.5467 13.203 73.5467 13.1778V12.1095H69.8174V12.1129C69.2061 12.0915 69.0538 12.0463 69.0538 12.0463L69.0543 12.0496C68.4517 11.9054 67.199 11.6769 66.089 11.6769C60.983 11.6769 59.3311 15.1364 59.3311 18.5964C59.3311 18.7237 59.3407 19.0032 59.3865 19.3668C58.8989 20.5955 58.1156 20.8861 57.5295 20.8861C56.4779 20.8861 56.3027 19.9194 56.3027 19.3596V12.1095H52.5486V14.3988H53.6256V19.1523C53.168 20.5385 52.3129 20.8603 51.6981 20.8603C50.6715 20.8603 50.4711 19.8938 50.4711 19.334V5.06229H46.7428V7.352H47.7942V20.4535C47.7942 22.1323 48.995 23.5826 50.947 23.5826C52.4566 23.5826 53.4732 22.8795 54.0729 22.1565C54.5826 23.0177 55.5093 23.6077 56.7532 23.6077C58.5373 23.6077 59.634 22.6439 60.1737 21.8132C60.7647 22.8038 61.7659 23.6334 63.4603 23.6334C64.6615 23.6334 65.788 23.3277 66.639 22.3867C66.639 22.3867 66.7143 22.2852 66.764 22.2852C66.7892 22.2852 66.8146 22.3106 66.8146 22.4121V23.7351C66.8146 25.2106 66.5634 28.2889 63.0847 28.2889C62.8843 28.2889 62.5347 28.2635 62.5347 28.2635V26.3552H60.2324V30.3495C60.2324 30.3495 60.983 30.6038 62.4094 30.6038C69.417 30.6038 69.417 24.7018 69.417 23.1246V14.4037H69.9234L69.923 14.3988H71.0193V23.3027H73.6965V17.3496C73.6965 15.7725 74.5475 14.3988 76.0994 14.3988C76.4746 14.3988 77.7513 14.6023 77.7513 16.0778V20.4789C77.7513 22.1581 78.9273 23.6077 80.8794 23.6077C82.4687 23.6077 83.5128 22.8338 84.1034 22.0768C84.7261 23.0315 85.7553 23.7859 87.4515 23.7859C88.9535 23.7859 90.3794 23.0738 91.0803 21.8272C91.1059 21.8016 91.1305 21.7509 91.1557 21.7509C91.1815 21.7509 91.1815 21.7767 91.2056 21.8524C91.5313 22.8953 92.5071 23.6077 93.859 23.6077C95.0114 23.6077 95.8755 23.1976 96.4872 22.6822V22.9719C96.4872 22.9719 97.5138 23.6841 100.241 23.6841C106.172 23.6841 106.573 18.6728 106.573 17.5789C106.573 11.8294 101.642 11.7021 100.742 11.7021ZM40.7219 15.9506L38.0939 8.75127C38.0692 8.67513 38.0433 8.62392 38.0192 8.62392C37.994 8.62392 37.9691 8.67513 37.9436 8.75127L35.391 15.9506H40.7219ZM29.2852 23.3027L35.391 7.58104H34.0396V5.06244H39.796L45.9282 20.7843H47.2785V23.3027H43.3753L41.6232 18.4948H34.4908L32.7387 23.3027H29.2852Z" fill="#231F20"/>
<mask id="mask1" mask-type="alpha" maskUnits="userSpaceOnUse" x="29" y="5" width="97" height="26">
<path fill-rule="evenodd" clip-rule="evenodd" d="M125.067 20.3263C124.868 19.9702 124.017 18.8508 124.017 18.8508C123.041 20.8604 121.263 21.5219 119.712 21.5219C116.057 21.5219 115.983 19.3847 115.983 19.2578C115.983 19.2578 116.008 19.2324 116.033 19.2324C116.208 19.2831 116.909 19.3339 117.209 19.3339C122.365 19.3339 122.465 15.6451 122.465 15.2891V15.2635C122.465 11.702 119.061 11.6512 118.711 11.6512H118.686C115.207 11.6512 112.954 14.1954 112.954 17.8077C112.954 18.1712 112.961 18.6842 113.043 19.2575C112.578 20.5545 111.752 20.8604 111.153 20.8604C110.127 20.8604 109.926 19.8936 109.926 19.3339V5.0624H106.197V7.35189H107.248V20.4536C107.248 22.1324 108.449 23.5825 110.402 23.5825C112.306 23.5825 113.425 22.4637 113.913 21.5973C114.742 22.7894 116.285 23.7608 119.161 23.7608C123.166 23.7608 125.118 21.2422 125.118 20.479C125.118 20.4536 125.118 20.4026 125.067 20.3263ZM54.8767 9.89604C55.7773 9.89604 56.5286 9.1328 56.5286 8.19167C56.5286 7.2757 55.7773 6.51246 54.8767 6.51246C53.9504 6.51246 53.2247 7.2757 53.2247 8.19167C53.2247 9.1328 53.9504 9.89604 54.8767 9.89604ZM118.31 13.9414C116.634 13.9414 115.757 15.5436 115.757 17.019C115.757 17.07 116.033 17.1976 116.934 17.1976C119.712 17.1976 119.762 15.4672 119.762 15.2129C119.762 14.0173 118.66 13.9414 118.31 13.9414ZM100.341 21.3185C99.7156 21.3185 99.1402 21.0894 99.1402 21.0894V14.2209C99.1402 14.2209 100.016 14.0426 100.541 14.0426C101.067 14.0426 103.795 14.1699 103.795 17.4769C103.795 21.2167 100.967 21.3185 100.341 21.3185ZM90.7303 18.2653C90.7303 19.5629 89.7797 21.064 88.078 21.064C86 21.064 85.9752 18.825 85.9752 18.1636C85.9752 14.9073 88.253 13.9664 89.4792 13.9664C90.3794 13.9664 90.7303 14.1189 90.7303 14.1189V18.2653ZM66.8146 18.2148C66.8146 19.4865 65.9133 21.0386 64.2366 21.0386C62.1588 21.0386 62.1093 18.7743 62.1093 18.1382C62.1093 14.9073 64.2618 13.9664 65.5633 13.9664C66.4642 13.9664 66.8146 14.1189 66.8146 14.1189V18.2148ZM100.742 11.7021C100.066 11.7021 99.1402 11.982 99.1402 11.982V5.06229H95.4358V7.352H96.4872V19.3222C96.0194 20.59 95.2026 20.9113 94.6096 20.9113C93.5835 20.9113 93.383 19.9194 93.383 19.3846V12.1347C93.383 12.1095 91.5313 11.6511 90.0044 11.6511C84.849 11.6511 83.1718 15.2892 83.1718 18.5454C83.1718 18.8475 83.1948 19.312 83.2835 19.841C82.8023 20.6719 82.1568 20.8861 81.6552 20.8861C80.6043 20.8861 80.4038 19.9701 80.4038 19.4362V15.3146C80.4038 12.9233 78.7771 11.8546 76.8255 11.8546C74.6474 11.8546 73.6716 13.1522 73.6716 13.1522C73.6218 13.2286 73.5964 13.254 73.5719 13.254C73.5467 13.254 73.5467 13.203 73.5467 13.1778V12.1095H69.8174V12.1129C69.2061 12.0915 69.0538 12.0463 69.0538 12.0463L69.0543 12.0496C68.4517 11.9054 67.199 11.6769 66.089 11.6769C60.983 11.6769 59.3311 15.1364 59.3311 18.5964C59.3311 18.7237 59.3407 19.0032 59.3865 19.3668C58.8989 20.5955 58.1156 20.8861 57.5295 20.8861C56.4779 20.8861 56.3027 19.9194 56.3027 19.3596V12.1095H52.5486V14.3988H53.6256V19.1523C53.168 20.5385 52.3129 20.8603 51.6981 20.8603C50.6715 20.8603 50.4711 19.8938 50.4711 19.334V5.06229H46.7428V7.352H47.7942V20.4535C47.7942 22.1323 48.995 23.5826 50.947 23.5826C52.4566 23.5826 53.4732 22.8795 54.0729 22.1565C54.5826 23.0177 55.5093 23.6077 56.7532 23.6077C58.5373 23.6077 59.634 22.6439 60.1737 21.8132C60.7647 22.8038 61.7659 23.6334 63.4603 23.6334C64.6615 23.6334 65.788 23.3277 66.639 22.3867C66.639 22.3867 66.7143 22.2852 66.764 22.2852C66.7892 22.2852 66.8146 22.3106 66.8146 22.4121V23.7351C66.8146 25.2106 66.5634 28.2889 63.0847 28.2889C62.8843 28.2889 62.5347 28.2635 62.5347 28.2635V26.3552H60.2324V30.3495C60.2324 30.3495 60.983 30.6038 62.4094 30.6038C69.417 30.6038 69.417 24.7018 69.417 23.1246V14.4037H69.9234L69.923 14.3988H71.0193V23.3027H73.6965V17.3496C73.6965 15.7725 74.5475 14.3988 76.0994 14.3988C76.4746 14.3988 77.7513 14.6023 77.7513 16.0778V20.4789C77.7513 22.1581 78.9273 23.6077 80.8794 23.6077C82.4687 23.6077 83.5128 22.8338 84.1034 22.0768C84.7261 23.0315 85.7553 23.7859 87.4515 23.7859C88.9535 23.7859 90.3794 23.0738 91.0803 21.8272C91.1059 21.8016 91.1305 21.7509 91.1557 21.7509C91.1815 21.7509 91.1815 21.7767 91.2056 21.8524C91.5313 22.8953 92.5071 23.6077 93.859 23.6077C95.0114 23.6077 95.8755 23.1976 96.4872 22.6822V22.9719C96.4872 22.9719 97.5138 23.6841 100.241 23.6841C106.172 23.6841 106.573 18.6728 106.573 17.5789C106.573 11.8294 101.642 11.7021 100.742 11.7021ZM40.7219 15.9506L38.0939 8.75127C38.0692 8.67513 38.0433 8.62392 38.0192 8.62392C37.994 8.62392 37.9691 8.67513 37.9436 8.75127L35.391 15.9506H40.7219ZM29.2852 23.3027L35.391 7.58104H34.0396V5.06244H39.796L45.9282 20.7843H47.2785V23.3027H43.3753L41.6232 18.4948H34.4908L32.7387 23.3027H29.2852Z" fill="white"/>
</mask>
<g mask="url(#mask1)">
<path fill-rule="evenodd" clip-rule="evenodd" d="M29.1924 3.72125H125.682V30.9861H29.1924V3.72125Z" fill="black"/>
</g>
</g>
<defs>
<clipPath id="clip0">
<rect width="223" height="48" fill="white" transform="translate(0.131348)"/>
</clipPath>
</defs>
</svg>
