<?xml version="1.0" encoding="UTF-8"?>
<svg width="125px" height="29px" viewBox="0 0 125 29" version="1.1" xmlns="http://www.w3.org/2000/svg" xmlns:xlink="http://www.w3.org/1999/xlink">
    <!-- Generator: Sketch 46.1 (44463) - http://www.bohemiancoding.com/sketch -->
    <title>Logo-Alignable</title>
    <desc>Created with Sketch.</desc>
    <defs>
        <polygon id="path-1" points="122.487133 25.9861947 122.487133 0.0975575221 0.0141581798 0.0975575221 0.0141581798 25.9861947"></polygon>
    </defs>
    <g id="Symbols" stroke="none" stroke-width="1" fill="none" fill-rule="evenodd">
        <g id="Logo-Alignable">
            <g id="Logo" transform="translate(1.013841, 1.435756)">
                <path d="M51.7233705,5.98828319 C52.6309099,5.98828319 53.3876646,5.25061947 53.3876646,4.34107965 C53.3876646,3.4559292 52.6309099,2.71849558 51.7233705,2.71849558 C50.7901105,2.71849558 50.0593125,3.4559292 50.0593125,4.34107965 C50.0593125,5.25061947 50.7901105,5.98828319 51.7233705,5.98828319" id="Fill-1" fill="#FFFFFF"></path>
                <g id="Group-7">
                    <mask id="mask-2" fill="white">
                        <use xlink:href="#path-1"></use>
                    </mask>
                    <g id="Clip-3"></g>
                    <path d="M113.057078,12.8718407 C113.057078,11.4457522 113.940076,9.89748673 115.629383,9.89748673 C115.98145,9.89748673 117.091687,9.97088496 117.091687,11.1263894 C117.091687,11.3721239 117.040953,13.0444071 114.243061,13.0444071 C113.33505,13.0444071 113.057078,12.9208496 113.057078,12.8718407 L113.057078,12.8718407 Z M122.4364,16.0677699 C122.23559,15.7237876 121.37784,14.6419115 121.37784,14.6419115 C120.39479,16.5840885 118.60378,17.2232743 117.040953,17.2232743 C113.359355,17.2232743 113.284316,15.158 113.284316,15.0353628 C113.284316,15.0353628 113.309801,15.0107434 113.33505,15.0107434 C113.511083,15.0597522 114.217104,15.1089912 114.519382,15.1089912 C119.713546,15.1089912 119.814541,11.544 119.814541,11.2000177 L119.814541,11.1753982 C119.814541,7.73350442 116.385666,7.68449558 116.032655,7.68449558 L116.007642,7.68449558 C112.502785,7.68449558 110.233229,10.1432212 110.233229,13.6338938 C110.233229,13.9852389 110.239836,14.4813097 110.323133,15.0351327 C109.854497,16.2884248 109.02176,16.5840885 108.418386,16.5840885 C107.384603,16.5840885 107.182377,15.6499292 107.182377,15.1089912 L107.182377,1.31702655 L103.426212,1.31702655 L103.426212,3.52955752 L104.484772,3.52955752 L104.484772,16.1908673 C104.484772,17.8132212 105.694588,19.2149204 107.661631,19.2149204 C109.580301,19.2149204 110.707528,18.1335044 111.199288,17.2964425 C112.033913,18.4482655 113.588481,19.3870265 116.486425,19.3870265 C120.520562,19.3870265 122.487133,16.9531504 122.487133,16.2154867 C122.487133,16.1908673 122.487133,16.1418584 122.4364,16.0677699 L122.4364,16.0677699 Z" id="Fill-2" fill="#FFFFFF" mask="url(#mask-2)"></path>
                    <path d="M97.5260262,17.0267788 C96.8959872,17.0267788 96.3162098,16.8052035 96.3162098,16.8052035 L96.3162098,10.1678407 C96.3162098,10.1678407 97.1982644,9.99550442 97.7277803,9.99550442 C98.2577681,9.99550442 101.005635,10.1183717 101.005635,13.3143009 C101.005635,16.9283009 98.1570091,17.0267788 97.5260262,17.0267788 L97.5260262,17.0267788 Z M87.8439549,14.076354 C87.8439549,15.3303363 86.8861541,16.7810442 85.1715985,16.7810442 C83.0783116,16.7810442 83.0535348,14.617292 83.0535348,13.9778761 C83.0535348,10.8309558 85.3481038,9.92164602 86.583405,9.92164602 C87.4904724,9.92164602 87.8439549,10.0691327 87.8439549,10.0691327 L87.8439549,14.076354 L87.8439549,14.076354 Z M63.7500364,14.0273451 C63.7500364,15.2564779 62.8420251,16.7561947 61.1529543,16.7561947 C59.0596674,16.7561947 59.0098778,14.5682832 59.0098778,13.9534867 C59.0098778,10.8309558 61.178439,9.92164602 62.4894865,9.92164602 C63.3970258,9.92164602 63.7500364,10.0691327 63.7500364,10.0691327 L63.7500364,14.0273451 L63.7500364,14.0273451 Z M97.9297703,7.73350442 C97.2489978,7.73350442 96.3162098,8.0040885 96.3162098,8.0040885 L96.3162098,1.31702655 L92.5843495,1.31702655 L92.5843495,3.52955752 L93.6436173,3.52955752 L93.6436173,15.0974867 C93.1721499,16.322708 92.3493237,16.6330973 91.7520845,16.6330973 C90.7183014,16.6330973 90.5165473,15.6745487 90.5165473,15.158 L90.5165473,8.15157522 C90.5165473,8.12718584 88.6509712,7.68449558 87.112449,7.68449558 C81.9187567,7.68449558 80.2292139,11.2000177 80.2292139,14.3469381 C80.2292139,14.6389204 80.2523389,15.0875929 80.3417714,15.5990796 C79.8568537,16.4018584 79.2065213,16.6089381 78.7013103,16.6089381 C77.6422784,16.6089381 77.4405244,15.7237876 77.4405244,15.2076991 L77.4405244,11.2246372 C77.4405244,8.91362832 75.8014791,7.88099115 73.8353798,7.88099115 C71.6413339,7.88099115 70.6582843,9.13497345 70.6582843,9.13497345 C70.6080228,9.20883186 70.582538,9.23322124 70.5577612,9.23322124 C70.5322765,9.23322124 70.5322765,9.1839823 70.5322765,9.15959292 L70.5322765,8.12718584 L66.7751675,8.12718584 L66.7751675,8.13063717 C66.1595226,8.10969912 66.0061424,8.06644248 66.0061424,8.06644248 L66.0066143,8.06966372 C65.3994644,7.93 64.1377346,7.70934513 63.0190024,7.70934513 C57.8753356,7.70934513 56.2110416,11.052531 56.2110416,14.3964071 C56.2110416,14.5192743 56.2207164,14.7893982 56.2667304,15.1407434 C55.7754416,16.328 54.986359,16.6089381 54.3959629,16.6089381 C53.3364592,16.6089381 53.1599538,15.6745487 53.1599538,15.1338407 L53.1599538,8.12718584 L49.378068,8.12718584 L49.378068,10.3397168 L50.4630566,10.3397168 L50.4630566,14.9334336 C50.0019718,16.2732389 49.1406826,16.5840885 48.5212622,16.5840885 C47.4870072,16.5840885 47.2852531,15.6499292 47.2852531,15.1089912 L47.2852531,1.31702655 L43.529088,1.31702655 L43.529088,3.52955752 L44.5881198,3.52955752 L44.5881198,16.1908673 C44.5881198,17.8132212 45.7979363,19.2149204 47.7645075,19.2149204 C49.285332,19.2149204 50.3094403,18.5352389 50.9137586,17.8366903 C51.4269926,18.6689204 52.3607246,19.2390796 53.6139595,19.2390796 C55.4113404,19.2390796 56.5161504,18.3079115 57.0600605,17.5046726 C57.6554119,18.4620708 58.6637103,19.2639292 60.3709508,19.2639292 C61.5812392,19.2639292 62.7157814,18.9687257 63.5730592,18.0591858 C63.5730592,18.0591858 63.6490414,17.9611681 63.6993029,17.9611681 C63.7247876,17.9611681 63.7500364,17.9855575 63.7500364,18.0838053 L63.7500364,19.3624071 C63.7500364,20.7882655 63.4970769,23.7630796 59.9924555,23.7630796 C59.7907014,23.7630796 59.4386347,23.7384602 59.4386347,23.7384602 L59.4386347,21.8943009 L57.1190529,21.8943009 L57.1190529,25.7542655 C57.1190529,25.7542655 57.8753356,26 59.3121549,26 C66.3718953,26 66.3718953,20.2965664 66.3718953,18.7722301 L66.3718953,10.3443186 L66.8822977,10.3443186 L66.8818258,10.3397168 L67.9859278,10.3397168 L67.9859278,18.9443363 L70.683533,18.9443363 L70.683533,13.1912035 C70.683533,11.6670973 71.5408108,10.3397168 73.1041099,10.3397168 C73.4818973,10.3397168 74.7681679,10.5362124 74.7681679,11.9620708 L74.7681679,16.2154867 C74.7681679,17.8380708 75.9532076,19.2390796 77.9197788,19.2390796 C79.5208329,19.2390796 80.5725497,18.4910619 81.1676652,17.7598407 C81.7948726,18.6824956 82.8317233,19.4111858 84.5408516,19.4111858 C86.0538891,19.4111858 87.4904724,18.7229912 88.1964936,17.5184779 C88.2222143,17.4936283 88.2472271,17.4448496 88.2724758,17.4448496 C88.2981965,17.4448496 88.2981965,17.469469 88.3227374,17.5428673 C88.6509712,18.5506549 89.6340208,19.2390796 90.9958017,19.2390796 C92.1567725,19.2390796 93.0272646,18.8428673 93.6436173,18.3447257 L93.6436173,18.6247434 C93.6436173,18.6247434 94.6778724,19.3129381 97.4255031,19.3129381 C103.400727,19.3129381 103.803999,14.4700354 103.803999,13.4127788 C103.803999,7.85660177 98.8370737,7.73350442 97.9297703,7.73350442 L97.9297703,7.73350442 Z" id="Fill-4" fill="#FFFFFF" mask="url(#mask-2)"></path>
                    <path d="M37.4634878,11.8392035 L34.8156722,4.88178761 C34.7908953,4.80838938 34.7649387,4.75892035 34.7406338,4.75892035 C34.7151491,4.75892035 34.6899003,4.80838938 34.6644156,4.88178761 L32.0928182,11.8392035 L37.4634878,11.8392035 L37.4634878,11.8392035 Z M25.941561,18.9443363 L32.0928182,3.75090265 L30.7312732,3.75090265 L30.7312732,1.31702655 L36.5306997,1.31702655 L42.7081495,16.5104602 L44.0687506,16.5104602 L44.0687506,18.9443363 L40.1365521,18.9443363 L38.3712631,14.2979292 L31.1857508,14.2979292 L29.4206977,18.9443363 L25.941561,18.9443363 L25.941561,18.9443363 Z" id="Fill-5" fill="#FFFFFF" mask="url(#mask-2)"></path>
                    <path d="M19.4047294,6.66037168 C18.0549829,2.8459646 14.3389326,0.0975575221 9.9744377,0.0975575221 C9.26133738,0.0975575221 8.56593478,0.172566372 7.89389317,0.311769912 C7.48708147,0.396672566 7.08923662,0.506424779 6.7020104,0.638495575 C6.75274388,0.789663717 6.80253348,0.94060177 6.85326696,1.09176991 C7.09843944,1.82667257 7.35375861,2.59332743 7.62158418,3.35722124 C7.77826804,3.80497345 7.9403792,4.24950442 8.10555796,4.68713274 C8.62941062,6.07387611 9.1950299,7.36973451 9.80784312,8.34300885 C10.0780284,8.77120354 10.3585963,9.12922124 10.6467153,9.412 C11.0648535,9.82017699 11.5021053,10.0649912 11.9610663,10.0649912 C12.6331079,10.064531 13.2572477,9.56017699 13.8405647,8.74727434 C14.3398765,9.72261947 14.849571,10.9906372 15.2920141,12.1935398 C14.3573382,12.9767611 13.2714059,13.4477522 11.9624821,13.4479823 L11.9610663,13.4479823 C10.967634,13.4479823 10.104221,13.1709558 9.33472394,12.7015752 C8.97062275,12.4795398 8.62209556,12.2211504 8.29905309,11.9130619 C7.37829946,11.0334336 6.61540953,9.82546903 5.94478375,8.4419469 C5.7102299,7.95715044 5.48582275,7.45256637 5.2715623,6.92911504 C4.67432308,5.47518584 4.14244745,3.90138053 3.61930271,2.33378761 C3.26676403,2.61863717 2.93451874,2.92741593 2.62563445,3.25621239 C0.996499892,4.98785841 0,7.29472566 0,9.82431858 C0,12.0347788 0.761474106,14.0740531 2.03995775,15.7097522 C2.32878462,16.0795044 2.64451203,16.4292389 2.98407237,16.7545841 C3.34416208,15.7608319 3.68325049,14.7401593 4.00369729,13.7765487 C4.43127432,12.4892035 4.86404269,11.1951858 5.33197053,9.96145133 C6.04247519,11.2538584 6.86530141,12.3633451 7.85519415,13.1799292 C7.66523857,13.7344425 7.48236208,14.2852743 7.30444095,14.8190796 C6.86718917,16.135646 6.42592589,17.4614159 5.94667151,18.7197699 C6.32233521,18.8824425 6.71003337,19.0237168 7.10811419,19.1408319 C8.0165974,19.4065841 8.97888169,19.5517699 9.9744377,19.5517699 C12.6548171,19.5517699 15.0886082,18.5138407 16.8824496,16.8316637 C17.2257855,16.5102301 17.5434007,16.1660177 17.8369469,15.7999469 C17.7258052,15.4711504 17.6165512,15.1416637 17.5068254,14.8126372 C17.2630687,14.0795752 17.0077495,13.3138407 16.7399239,12.5520177 C16.5822962,12.1033451 16.4216009,11.6588142 16.2561861,11.2209558 C15.7330414,9.83559292 15.168366,8.53835398 14.5546089,7.56507965 C14.2853675,7.1359646 14.0047996,6.77748673 13.7157367,6.49516814 C13.612146,6.39323894 13.5059597,6.30143363 13.3995374,6.22113274 C13.0793265,5.98 12.748733,5.84286726 12.4035094,5.84286726 C11.7321757,5.84286726 11.1061482,6.34699115 10.5228312,7.16058407 C10.0223395,6.1840885 9.51382492,4.91768142 9.07043792,3.71454867 C9.1872429,3.61676106 9.30640758,3.52357522 9.42816793,3.43568142 C10.2811983,2.81973451 11.2559889,2.45987611 12.4028015,2.45987611 L12.4058691,2.45987611 C13.3971777,2.45987611 14.2591749,2.7359823 15.028436,3.20490265 C15.393717,3.42739823 15.7403564,3.68532743 16.0643428,3.99364602 C16.9850964,4.87327434 17.7470425,6.08169912 18.4176683,7.4659115 C18.652694,7.95116814 18.8761573,8.4559823 19.0913616,8.97966372 C19.3629627,9.64162832 19.6208776,10.3291327 19.8702975,11.0290619 C19.920559,10.634 19.9500553,10.2327257 19.9500553,9.82431858 C19.9500553,8.71690265 19.7565601,7.65320354 19.4047294,6.66037168" id="Fill-6" fill="#FFFFFF" mask="url(#mask-2)"></path>
                </g>
            </g>
        </g>
    </g>
</svg>