<?xml version="1.0" encoding="UTF-8"?>
<svg width="169px" height="25px" viewBox="0 0 169 25" version="1.1" xmlns="http://www.w3.org/2000/svg" xmlns:xlink="http://www.w3.org/1999/xlink">
    <!-- Generator: Sketch 46.2 (44496) - http://www.bohemiancoding.com/sketch -->
    <title>Logo-Home-TechCrunch</title>
    <desc>Created with Sketch.</desc>
    <defs></defs>
    <g id="Symbols" stroke="none" stroke-width="1" fill="none" fill-rule="evenodd">
        <g id="Logo-Home-TechCrunch" fill="#A6A5A5">
            <g id="Group-15" transform="translate(0.158203, 0.015137)">
                <polygon id="Fill-43" points="31.6810195 8.41286258 47.367239 8.41286258 47.367239 0.415375275 31.6810195 0.415375275"></polygon>
                <polygon id="Fill-45" points="0.30784963 0.415375275 0.30784963 8.41286258 8.1509594 8.41286258 8.1509594 24.4078372 15.9940692 24.4078372 15.9940692 8.41286258 23.8371789 8.41286258 23.8371789 0.415375275"></polygon>
                <polygon id="Fill-46" points="23.8369962 24.4079285 31.6810195 24.4079285 47.367239 24.4079285 47.367239 16.4104412 31.6810195 16.4104412 31.6810195 8.41295393 23.8369962 8.41295393"></polygon>
                <polygon id="Fill-47" points="67.3573947 6.4631382 55.8348013 6.4631382 55.8348013 9.78636594 59.688759 9.78636594 59.688759 20.227403 63.5034371 20.227403 63.5034371 9.78636594 67.3573947 9.78636594"></polygon>
                <path d="M70.2280862,13.8757265 C70.3468381,12.8535462 70.7980955,12.3027198 71.6046953,12.3027198 C72.6460586,12.3027198 73.0004875,12.8334497 73.177702,13.8757265 L70.2280862,13.8757265 Z M71.7024373,9.68743643 C68.9903254,9.68743643 66.9834174,11.5162165 66.9834174,15.0751212 C66.9834174,18.241231 68.694359,20.443623 71.8010928,20.443623 C73.4133789,20.443623 74.7315256,20.0106351 76.0094793,19.2634112 L74.6529666,17.0025567 C73.6298729,17.5332866 72.882649,17.7305976 71.9783072,17.7305976 C71.0145895,17.7305976 70.3468381,17.2190507 70.2280862,16.0781185 L76.2844358,16.0781185 C76.3036188,15.900904 76.3036188,15.6844101 76.3036188,15.3902706 C76.3036188,11.555496 74.5342147,9.68743643 71.7024373,9.68743643 L71.7024373,9.68743643 Z" id="Fill-48"></path>
                <path d="M83.0087194,17.5724748 C82.0450017,17.5724748 81.5535513,16.7275089 81.5535513,15.0951263 C81.5535513,13.4627437 82.0057222,12.5584019 82.9118909,12.5584019 C83.6773843,12.5584019 84.0126302,12.9904763 84.5040806,13.8957316 L86.9421495,12.046855 C86.0368942,10.5916869 84.9160585,9.68734508 82.9694399,9.68734508 C79.6672222,9.68734508 78.0540226,11.8696406 78.0540226,15.0357504 C78.0540226,18.5170095 79.8636196,20.4435316 82.890881,20.4435316 C84.719661,20.4435316 85.8414103,19.7556838 87.0398915,17.9853662 L84.79822,16.2351451 C84.1496517,17.1988629 83.6773843,17.5724748 83.0087194,17.5724748" id="Fill-49"></path>
                <path d="M95.2006171,9.68752777 C93.9811259,9.68752777 93.253085,10.1004192 92.6045167,10.5918696 L92.6045167,5.89294613 L89.064795,7.30883481 L89.064795,20.2272204 L92.6045167,20.2272204 L92.6045167,14.3279887 C92.6045167,13.030852 93.0566876,12.6764231 93.8039114,12.6764231 C94.5319522,12.6764231 94.9841231,13.030852 94.9841231,14.3672682 L94.9841231,20.2272204 L98.5430278,20.2272204 L98.5430278,13.9150973 C98.5430278,11.2011584 97.4614716,9.68752777 95.2006171,9.68752777" id="Fill-50"></path>
                <path d="M107.076726,17.1202125 C105.424247,17.1202125 104.756495,15.4485504 104.756495,13.3448139 C104.756495,11.1625184 105.444343,9.56941526 107.037446,9.56941526 C108.296217,9.56941526 108.768484,10.3760151 109.259935,11.6539688 L112.720184,10.2974561 C111.776563,7.70135568 110.439233,6.247101 107.057543,6.247101 C103.360703,6.247101 100.765516,8.91993342 100.765516,13.3448139 C100.765516,17.4152655 102.946898,20.4434403 107.037446,20.4434403 C110.301298,20.4434403 111.835025,18.6932192 112.759464,16.8845356 L109.533978,15.173594 C108.786754,16.4716442 108.276121,17.1202125 107.076726,17.1202125" id="Fill-51"></path>
                <path d="M118.441653,10.6513369 L118.441653,9.90411307 L114.901931,9.90411307 L114.901931,20.2273117 L118.441653,20.2273117 L118.441653,14.60395 C118.441653,13.3451793 118.972383,12.9322879 119.837445,12.9322879 C120.526207,12.9322879 121.03684,13.3058998 121.489924,13.7973502 L122.315707,10.120607 C121.902816,9.86483358 121.391269,9.68761912 120.644045,9.68761912 C119.739703,9.68761912 119.050942,10.061231 118.441653,10.6513369" id="Fill-52"></path>
                <path d="M129.924328,15.8030707 C129.924328,17.1011209 129.47307,17.4546363 128.745029,17.4546363 C128.016989,17.4546363 127.565731,17.1011209 127.565731,15.7637912 L127.565731,9.90383902 L124.005913,9.90383902 L124.005913,16.2159621 C124.005913,18.9299009 125.087469,20.4435316 127.350151,20.4435316 C128.548632,20.4435316 129.296769,20.0306402 129.924328,19.5391898 L129.924328,20.2270377 L133.484146,20.2270377 L133.484146,9.90383902 L129.924328,9.90383902 L129.924328,15.8030707 Z" id="Fill-53"></path>
                <path d="M142.194693,9.68752777 C140.975202,9.68752777 140.248074,10.1004192 139.599506,10.5918696 L139.599506,9.90402172 L136.059784,9.90402172 L136.059784,20.2272204 L139.599506,20.2272204 L139.599506,14.3279887 C139.599506,13.030852 140.051677,12.6764231 140.798901,12.6764231 C141.526942,12.6764231 141.978199,13.030852 141.978199,14.3672682 L141.978199,20.2272204 L145.538017,20.2272204 L145.538017,13.9150973 C145.538017,11.2011584 144.456461,9.68752777 142.194693,9.68752777" id="Fill-54"></path>
                <path d="M152.576537,17.5724748 C151.612819,17.5724748 151.121369,16.7275089 151.121369,15.0951263 C151.121369,13.4627437 151.573539,12.5584019 152.478795,12.5584019 C153.245202,12.5584019 153.580447,12.9904763 154.071898,13.8957316 L156.509053,12.046855 C155.604712,10.5916869 154.483876,9.68734508 152.537257,9.68734508 C149.234126,9.68734508 147.620926,11.8696406 147.620926,15.0357504 C147.620926,18.5170095 149.431437,20.4435316 152.458698,20.4435316 C154.287478,20.4435316 155.409228,19.7556838 156.607709,17.9853662 L154.366037,16.2351451 C153.717469,17.1988629 153.245202,17.5724748 152.576537,17.5724748" id="Fill-55"></path>
                <path d="M164.767521,9.68752777 C163.548943,9.68752777 162.820902,10.1004192 162.172334,10.5918696 L162.172334,5.89294613 L158.632612,7.30883481 L158.632612,20.2272204 L162.172334,20.2272204 L162.172334,14.3279887 C162.172334,13.030852 162.624505,12.6764231 163.371729,12.6764231 C164.099769,12.6764231 164.55194,13.030852 164.55194,14.3672682 L164.55194,20.2272204 L168.109932,20.2272204 L168.109932,13.9150973 C168.109932,11.2011584 167.029289,9.68752777 164.767521,9.68752777" id="Fill-56"></path>
            </g>
        </g>
    </g>
</svg>