<?xml version="1.0" encoding="UTF-8"?>
<svg width="221px" height="24px" viewBox="0 0 221 24" version="1.1" xmlns="http://www.w3.org/2000/svg" xmlns:xlink="http://www.w3.org/1999/xlink">
    <!-- Generator: Sketch 46.2 (44496) - http://www.bohemiancoding.com/sketch -->
    <title>Logo-Home-WSJ</title>
    <desc>Created with Sketch.</desc>
    <defs></defs>
    <g id="Symbols" stroke="none" stroke-width="1" fill="none" fill-rule="evenodd">
        <g id="Logo-Home-WSJ" fill="#A6A5A5">
            <path d="M200.588019,16.7003453 L204.398994,16.7003453 L202.460432,7.20701248 L200.588019,16.7003453 Z M214.628541,23.086358 L215.965587,23.086358 C218.806938,23.086358 219.642891,19.7086124 219.977067,16.1331034 L220.478502,16.1331034 L220.478502,23.7536812 L203.429713,23.7536812 L203.429713,23.2865207 L204.131653,23.1518221 C205.569123,22.8855098 205.602712,22.4844989 205.201358,20.477388 L204.565567,17.4691209 L200.454692,17.4691209 L200.019064,19.7428869 C199.517629,22.3172396 199.785312,22.9513167 200.788182,23.1518221 L201.490122,23.2865207 L201.490122,23.7536812 L196.843194,23.7536812 L196.843194,23.2865207 L197.410779,23.1192614 C198.314253,22.8519208 198.547319,22.3172396 199.016194,20.0434737 L203.094166,0.587933701 L204.097721,0.587933701 L208.375856,20.6785789 C208.811484,22.7514967 208.977715,23.1854111 210.181776,23.1854111 C211.217207,23.1854111 211.586,22.6500444 211.586,21.6482027 L211.586,2.79417905 C211.586,1.85814424 211.28507,1.55687196 210.616719,1.38995547 L209.881189,1.18945003 L209.881189,0.721261251 L216.500268,0.721261251 L216.500268,1.22303897 L215.597479,1.42354441 C214.929128,1.55687196 214.628198,1.85814424 214.628198,2.79417905 L214.628541,23.086358 Z M185.210794,1.32346306 L184.743291,1.18979277 L184.743291,0.721261251 L189.12185,0.721261251 L195.105823,15.8983236 L195.105823,4.96717819 C195.105823,2.49359226 195.172316,1.6243926 193.40067,1.32346306 L192.832743,1.18979277 L192.832743,0.721261251 L197.780257,0.721261251 L197.780257,1.18979277 L197.312754,1.32346306 C195.875627,1.65729606 195.976051,2.82742525 195.976051,5.16734089 L195.976051,23.7543667 L194.906346,23.7543667 L187.417725,5.33528562 L187.417725,19.5087925 C187.417725,22.2168156 187.417725,22.9862766 189.557135,23.2865207 L189.557135,23.7533385 L184.742605,23.7533385 L184.742605,23.2865207 L185.34515,23.1860966 C186.581086,22.9509739 186.548525,21.748284 186.548525,19.308287 L186.548525,3.32920297 C185.97957,2.15941652 185.745475,1.52396851 185.210794,1.32346306 L185.210794,1.32346306 Z M176.151376,11.6866811 L177.25467,11.6866811 C179.126397,11.6866811 180.062431,11.1852461 180.062431,6.73882371 C180.062431,2.29274407 178.82581,1.39029821 177.488764,1.39029821 L176.151376,1.39029821 L176.151376,11.6866811 Z M171.437955,23.2865207 L172.173142,23.0856725 C172.841836,22.918756 173.142766,22.5842375 173.142766,21.6482027 L173.142766,2.79452179 C173.142766,1.690885 172.641331,1.29021686 171.471202,1.29021686 C170.000486,1.29021686 169.632721,1.95891108 169.632721,3.86388415 L169.632721,18.3722522 C169.632721,21.9827212 168.36251,23.9212832 165.254162,23.9212832 C162.045047,23.9212832 160.17332,21.9827212 160.17332,18.4726763 L160.17332,2.79452179 C160.17332,1.85848699 159.938883,1.55721471 159.270531,1.39029821 L158.535002,1.18979277 L158.535002,0.721261251 L165.187327,0.721261251 L165.187327,1.18979277 L164.284538,1.39029821 C163.549009,1.55721471 163.248422,1.82489804 163.248422,2.76093284 L163.248422,18.706428 C163.248422,21.9491322 164.184114,22.7850857 165.889267,22.7850857 C167.895693,22.7850857 168.730961,21.6482027 168.730961,18.3719095 L168.730961,5.06760228 C168.730961,2.25949787 168.697372,1.59046091 167.494682,1.32346306 L166.859234,1.18979277 L166.859234,0.721261251 L177.824311,0.721261251 C180.665661,0.721261251 183.306507,2.52649571 183.306507,6.30388113 C183.306507,9.21275238 181.935872,11.2517385 179.161014,11.9872679 C182.203213,12.555538 182.203213,13.9933505 182.504142,17.8368856 L182.704648,20.7786603 C182.805072,22.4169783 182.871564,22.7854284 183.340096,22.7854284 C183.84153,22.7854284 184.042721,21.6488882 184.042721,20.5455941 L184.042721,19.9769813 L184.610306,19.9769813 L184.610306,20.7457568 C184.610306,22.5845802 184.209295,23.888037 182.303979,23.888037 C180.43191,23.888037 179.56271,22.8183319 179.428354,18.9744541 L179.261781,14.6952909 C179.194945,12.6563048 178.69351,12.3553753 177.724229,12.3553753 L176.153089,12.3553753 L176.153089,21.6485454 C176.153089,22.5845802 176.453676,22.9523449 177.12237,23.1192614 L177.8579,23.2868634 L177.8579,23.7540239 L171.438984,23.7540239 L171.438984,23.2868634 L171.437955,23.2868634 L171.437955,23.2865207 Z M152.349837,1.32346306 C150.678273,1.32346306 149.843348,2.66050875 149.843348,12.0876919 C149.843348,21.8154619 150.611438,23.1864393 152.349837,23.1864393 C154.087894,23.1864393 154.890258,21.8154619 154.890258,12.0205141 C154.890258,2.6608515 154.087894,1.32346306 152.349837,1.32346306 L152.349837,1.32346306 Z M152.349837,23.9212832 C148.438782,23.9212832 146.53278,18.6399356 146.53278,12.2210195 C146.53278,5.83637785 148.371604,0.5546875 152.349837,0.5546875 C156.294482,0.5546875 158.199798,5.83637785 158.199798,12.2210195 C158.199798,18.6399356 156.394906,23.9212832 152.349837,23.9212832 L152.349837,23.9212832 Z M144.560629,18.4394301 C144.560629,22.0169956 142.754367,23.8876942 139.980879,23.8876942 C137.47439,23.8876942 136.003674,21.8487081 136.036235,19.6088738 C136.069824,17.8708173 137.340034,17.0019604 138.37615,17.1352879 C139.11168,17.2353693 139.847209,17.7703932 139.746785,18.9408651 C139.646361,20.6124293 137.840441,20.5455941 137.774291,21.5813675 C137.707799,22.2171583 138.543067,23.1525076 139.612087,23.1525076 C141.485184,23.1525076 141.485184,20.779003 141.485184,18.9744541 L141.485184,2.76093284 C141.485184,1.82489804 141.183227,1.55721471 140.448726,1.39029821 L139.613115,1.18979277 L139.613115,0.721261251 L146.19929,0.721261251 L146.19929,1.18979277 L145.463761,1.39029821 C144.795409,1.55721471 144.561315,1.85848699 144.561315,2.79452179 L144.560629,18.4394301 Z M126.205642,21.6482027 C126.205642,22.6846616 126.507257,22.8848243 127.174923,23.0524263 L128.211039,23.2868634 L128.211039,23.7547094 L121.324619,23.7547094 L121.324619,23.2868634 L122.193819,23.0867007 C122.861485,22.9194415 123.163785,22.5845802 123.163785,21.6492309 L123.163785,1.39029821 L122.427913,1.39029821 C120.355338,1.39029821 119.519728,4.76667275 119.285633,8.34355273 L118.784198,8.34355273 L118.784198,0.721603996 L130.584886,0.721603996 L130.584886,8.34389547 L130.083451,8.34389547 C129.849014,4.76701549 129.013746,1.39029821 126.941171,1.39029821 L126.205642,1.39029821 L126.205642,21.6482027 Z M111.262674,23.086358 L113.569343,23.086358 C116.576925,23.086358 117.146223,19.6763945 117.546548,16.1331034 L118.047983,16.1331034 L118.047983,23.7536812 L106.515664,23.7536812 L106.515664,23.2865207 L107.251194,23.086358 C107.919545,22.918756 108.220818,22.5842375 108.220818,21.6485454 L108.220818,2.82742525 C108.220818,1.89173319 107.919545,1.55721471 107.251194,1.39029821 L106.515664,1.18979277 L106.515664,0.721261251 L117.714493,0.721261251 L117.714493,8.34355273 L117.213058,8.34355273 C116.845293,4.76667275 116.143353,1.39029821 113.569343,1.39029821 L111.262674,1.39029821 L111.262674,11.4522439 L112.332379,11.4189977 C113.769506,11.3182309 114.30453,10.0816093 114.672294,7.17308079 L115.174072,7.17308079 L115.174072,16.4659082 L114.672294,16.4659082 C114.371365,12.8221931 113.803095,12.253923 112.29879,12.1534989 L111.262674,12.1202527 L111.262674,23.086358 Z M98.8601268,23.086358 L101.166453,23.086358 C104.174721,23.086358 104.744019,19.6763945 105.144344,16.1331034 L105.645779,16.1331034 L105.645779,23.7536812 L94.1127749,23.7536812 L94.1127749,23.2865207 L94.8483042,23.086358 C95.5166557,22.918756 95.8175852,22.5842375 95.8175852,21.6485454 L95.8175852,2.82742525 C95.8175852,1.89173319 95.5166557,1.55721471 94.8483042,1.39029821 L94.1127749,1.18979277 L94.1127749,0.721261251 L105.311946,0.721261251 L105.311946,8.34355273 L104.810169,8.34355273 C104.443432,4.76667275 103.740806,1.39029821 101.166453,1.39029821 L98.8601268,1.39029821 L98.8601268,11.4522439 L99.9298319,11.4189977 C101.366616,11.3182309 101.902326,10.0816093 102.269748,7.17308079 L102.771525,7.17308079 L102.771525,16.4659082 L102.269748,16.4659082 C101.968475,12.8221931 101.400891,12.253923 99.8955574,12.1534989 L98.8601268,12.1202527 L98.8601268,23.086358 Z M85.4550527,11.6866811 L86.5583468,11.6866811 C88.4304164,11.6866811 89.3664512,11.1852461 89.3664512,6.73882371 C89.3664512,2.29274407 88.1294868,1.39029821 86.7924411,1.39029821 L85.4553955,1.39029821 L85.4550527,11.6866811 Z M80.7416325,23.2865207 L81.4771619,23.0856725 C82.1458561,22.918756 82.4467856,22.5842375 82.4467856,21.6482027 L82.4467856,2.79452179 C82.4467856,1.85848699 82.1458561,1.55721471 81.4771619,1.39029821 L80.7416325,1.18979277 L80.7416325,0.721261251 L87.1266169,0.721261251 C89.9683102,0.721261251 92.6091554,2.52649571 92.6091554,6.30388113 C92.6091554,9.21275238 91.2385208,11.2517385 88.4636626,11.9872679 C91.5058614,12.555538 91.5058614,13.9933505 91.8067909,17.8368856 L92.0072963,20.7786603 C92.1077204,22.4169783 92.1745556,22.7854284 92.6427444,22.7854284 C93.1441793,22.7854284 93.3450275,21.6488882 93.3450275,20.5455941 L93.3450275,19.9769813 L93.9129549,19.9769813 L93.9129549,20.7457568 C93.9129549,22.5845802 93.5116013,23.888037 91.6066282,23.888037 C89.7342159,23.888037 88.8653589,22.8183319 88.7310032,18.9744541 L88.5644294,14.6952909 C88.4975943,12.6563048 87.9961593,12.3553753 87.0265355,12.3553753 L85.4553955,12.3553753 L85.4553955,21.6485454 C85.4553955,22.5845802 85.756325,22.9523449 86.4250192,23.1192614 L87.1605486,23.2868634 L87.1605486,23.7540239 L80.7419752,23.7540239 L80.7416325,23.2865207 Z M75.6268586,21.6482027 C75.6268586,22.5842375 75.9277882,22.918756 76.5964824,23.0856725 L77.465682,23.2865207 L77.465682,23.7533385 L70.7465219,23.7533385 L70.7465219,23.2865207 L71.6157216,23.0856725 C72.2844158,22.918756 72.5853453,22.5842375 72.5853453,21.6482027 L72.5853453,1.39029821 L71.849816,1.39029821 C69.7772409,1.39029821 68.9416302,4.76667275 68.7075358,8.34355273 L68.2061008,8.34355273 L68.2061008,0.721603996 L80.0071314,0.721603996 L80.0071314,8.34389547 L79.5053536,8.34389547 C79.2712593,4.76701549 78.4359913,1.39029821 76.3630735,1.39029821 L75.6275441,1.39029821 L75.6275441,21.6482027 L75.6268586,21.6482027 Z M63.3250786,23.8876942 C61.3865166,23.8876942 60.7181651,22.5509913 60.0830599,22.5509913 C59.7152952,22.5509913 59.2806954,22.6510726 58.9465196,23.7547094 L58.5455087,23.7547094 L58.5455087,16.132418 L59.0469437,16.132418 C59.4482974,20.4448273 61.0530264,23.1514794 63.2925179,23.1514794 C64.7968228,23.1514794 65.8332817,21.7808447 65.8332817,19.3072588 C65.8332817,14.0924036 58.3785923,11.8525693 58.3785923,6.06910126 C58.3785923,2.9607528 59.9833213,0.586905468 62.8246719,0.586905468 C64.6631526,0.586905468 65.0645062,1.78993812 65.8332817,1.78993812 C66.2678816,1.78993812 66.5688111,1.45576238 66.7357276,0.720233018 L67.1367385,0.720233018 L67.1367385,8.34252449 L66.6353035,8.34252449 C66.2342926,4.49796118 65.1981765,1.32243483 62.7907402,1.32243483 C61.1195188,1.32243483 60.7850003,2.99365625 60.7850003,4.13053925 C60.7850003,9.11130006 68.2396898,10.8161104 68.2396898,17.7693649 C68.2386616,21.3143697 66.3000995,23.8876942 63.3250786,23.8876942 L63.3250786,23.8876942 Z M46.574477,23.086358 L47.9115227,23.086358 C50.7532161,23.086358 51.5888268,19.7086124 51.9230025,16.1331034 L52.4244375,16.1331034 L52.4244375,23.7536812 L41.8274679,23.7536812 L41.8274679,23.2865207 L42.5629972,23.086358 C43.2316914,22.918756 43.532621,22.5842375 43.532621,21.6485454 L43.532621,2.79452179 C43.532621,1.85848699 43.2316914,1.55721471 42.5629972,1.39029821 L41.8274679,1.18979277 L41.8274679,0.721261251 L48.4465466,0.721261251 L48.4465466,1.22303897 L47.5441008,1.42354441 C46.8754066,1.55687196 46.574477,1.85814424 46.574477,2.79417905 L46.574477,23.086358 Z M21.1682098,16.7003453 L24.9791841,16.7003453 L23.0402794,7.20735522 L21.1682098,16.7003453 Z M35.241978,23.086358 L36.5790237,23.086358 C39.4203743,23.086358 40.2563278,19.7086124 40.5905035,16.1331034 L41.0919385,16.1331034 L41.0919385,23.7536812 L24.0095604,23.7536812 L24.0095604,23.2865207 L24.7115008,23.1518221 C26.1489706,22.8855098 26.1489706,22.4844989 25.7812059,20.477388 L25.1461006,17.4691209 L21.0341967,17.4691209 L20.5995969,19.7428869 C20.0981619,22.3172396 20.3655025,22.9513167 21.3687152,23.1518221 L22.0706556,23.2865207 L22.0706556,23.7536812 L17.4240705,23.7536812 L17.4240705,23.2865207 L17.9923407,23.1192614 C18.8947865,22.8519208 19.1288809,22.3172396 19.5970697,20.0434737 L23.6753846,0.587590957 L24.6782546,0.587590957 L28.957075,20.6782362 C29.3916748,22.751154 29.5921803,23.1850683 30.7955556,23.1850683 C31.8316718,23.1850683 32.1994365,22.6497017 32.1994365,21.6478599 L32.1994365,2.79417905 C32.1994365,1.85814424 31.8988497,1.55687196 31.2301555,1.38995547 L30.4946261,1.18945003 L30.4946261,0.721261251 L37.1137049,0.721261251 L37.1137049,1.22303897 L36.2109163,1.42354441 C35.5425648,1.55687196 35.2416353,1.85814424 35.2416353,2.79417905 L35.241978,23.086358 Z M2.54793776,3.797049 C2.11333793,1.82524078 1.84599734,1.52431125 1.21089207,1.35670927 L0.575786801,1.18979277 L0.575786801,0.721261251 L6.8271009,0.721261251 L6.8271009,1.18979277 L6.32566592,1.28987412 C5.25596082,1.52396851 5.35604217,2.5936736 5.65697171,4.03114339 L8.29781688,17.1349452 L10.2367216,6.70489202 L9.53478122,3.12766929 C9.26744063,1.85745875 9.16701654,1.45644787 8.49866507,1.28953137 L8.06406524,1.18945003 L8.06406524,0.720918507 L14.181709,0.720918507 L14.181709,1.18945003 L13.4461797,1.32312032 C12.3428856,1.52362576 12.5101449,2.72665841 12.7774855,4.03080064 L15.3182493,17.1352879 L17.8254242,4.73274106 C18.2932702,2.15907378 18.0595186,1.52396851 17.0566486,1.32346306 L16.3547082,1.18979277 L16.3547082,0.721261251 L20.9344581,0.721261251 L20.9344581,1.18979277 L20.2993528,1.35670927 C19.4969883,1.55721471 19.2964829,2.19231998 18.8282941,4.43215427 L14.7499792,23.8883797 L13.8807795,23.8883797 L10.7384994,8.71131741 L7.896806,23.8883797 L6.79351195,23.8883797 L2.54793776,3.797049 Z" id="Page-1"></path>
        </g>
    </g>
</svg>